<?xml version="1.0" encoding="UTF-8" standalone="no"?>
<!DOCTYPE svg PUBLIC "-//W3C//DTD SVG 1.1//EN"
 "http://www.w3.org/Graphics/SVG/1.1/DTD/svg11.dtd">
<!-- Generated by graphviz version 15.0.0 (0)
 -->
<!-- Title: product_map Pages: 1 -->
<svg width="496pt" height="709pt"
 viewBox="0.00 0.00 496.00 709.00" xmlns="http://www.w3.org/2000/svg" xmlns:xlink="http://www.w3.org/1999/xlink">
<g id="graph0" class="graph" transform="scale(1 1) rotate(0) translate(4 704.96)">
<title>product_map</title>
<g id="clust1" class="cluster">
<title>cluster_is</title>
<path fill="#f8fafc" stroke="#cbd5e1" d="M20,-194.4C20,-194.4 228,-194.4 228,-194.4 234,-194.4 240,-200.4 240,-206.4 240,-206.4 240,-680.96 240,-680.96 240,-686.96 234,-692.96 228,-692.96 228,-692.96 20,-692.96 20,-692.96 14,-692.96 8,-686.96 8,-680.96 8,-680.96 8,-206.4 8,-206.4 8,-200.4 14,-194.4 20,-194.4"/>
<text xml:space="preserve" text-anchor="middle" x="82.5" y="-678.16" font-family="Helvetica,sans-Serif" font-weight="bold" font-size="12.00">IRON &amp; STEEL MAKING</text>
</g>
<g id="clust2" class="cluster">
<title>cluster_ce</title>
<path fill="#f8fafc" stroke="#cbd5e1" d="M260,-265.28C260,-265.28 468,-265.28 468,-265.28 474,-265.28 480,-271.28 480,-277.28 480,-277.28 480,-680.96 480,-680.96 480,-686.96 474,-692.96 468,-692.96 468,-692.96 260,-692.96 260,-692.96 254,-692.96 248,-686.96 248,-680.96 248,-680.96 248,-277.28 248,-277.28 248,-271.28 254,-265.28 260,-265.28"/>
<text xml:space="preserve" text-anchor="middle" x="331.83" y="-678.16" font-family="Helvetica,sans-Serif" font-weight="bold" font-size="12.00">COMBUSTION EQUIPMENT</text>
</g>
<g id="clust3" class="cluster">
<title>cluster_fo</title>
<path fill="#f8fafc" stroke="#cbd5e1" d="M260,-8C260,-8 468,-8 468,-8 474,-8 480,-14 480,-20 480,-20 480,-245.28 480,-245.28 480,-251.28 474,-257.28 468,-257.28 468,-257.28 260,-257.28 260,-257.28 254,-257.28 248,-251.28 248,-245.28 248,-245.28 248,-20 248,-20 248,-14 254,-8 260,-8"/>
<text xml:space="preserve" text-anchor="middle" x="336.67" y="-242.48" font-family="Helvetica,sans-Serif" font-weight="bold" font-size="12.00">FURNACES / OVENS / OTHER</text>
</g>
<!-- i1 -->
<g id="node1" class="node">
<title>i1</title>
<path fill="#dcfce7" stroke="#16a34a" d="M223.84,-662.56C223.84,-662.56 24.16,-662.56 24.16,-662.56 20.08,-662.56 16,-658.48 16,-654.4 16,-654.4 16,-646.24 16,-646.24 16,-642.16 20.08,-638.08 24.16,-638.08 24.16,-638.08 223.84,-638.08 223.84,-638.08 227.92,-638.08 232,-642.16 232,-646.24 232,-646.24 232,-654.4 232,-654.4 232,-658.48 227.92,-662.56 223.84,-662.56"/>
<text xml:space="preserve" text-anchor="middle" x="124" y="-647.32" font-family="Helvetica,sans-Serif" font-size="10.00">Vertical Ladle Preheater</text>
</g>
<!-- i2 -->
<g id="node2" class="node">
<title>i2</title>
<path fill="#dcfce7" stroke="#16a34a" d="M223.84,-626.08C223.84,-626.08 24.16,-626.08 24.16,-626.08 20.08,-626.08 16,-622 16,-617.92 16,-617.92 16,-609.76 16,-609.76 16,-605.68 20.08,-601.6 24.16,-601.6 24.16,-601.6 223.84,-601.6 223.84,-601.6 227.92,-601.6 232,-605.68 232,-609.76 232,-609.76 232,-617.92 232,-617.92 232,-622 227.92,-626.08 223.84,-626.08"/>
<text xml:space="preserve" text-anchor="middle" x="124" y="-610.84" font-family="Helvetica,sans-Serif" font-size="10.00">Horizontal Ladle Preheater</text>
</g>
<!-- i1&#45;&gt;i2 -->
<!-- i3 -->
<g id="node3" class="node">
<title>i3</title>
<path fill="#dcfce7" stroke="#16a34a" d="M223.84,-589.6C223.84,-589.6 24.16,-589.6 24.16,-589.6 20.08,-589.6 16,-585.52 16,-581.44 16,-581.44 16,-573.28 16,-573.28 16,-569.2 20.08,-565.12 24.16,-565.12 24.16,-565.12 223.84,-565.12 223.84,-565.12 227.92,-565.12 232,-569.2 232,-573.28 232,-573.28 232,-581.44 232,-581.44 232,-585.52 227.92,-589.6 223.84,-589.6"/>
<text xml:space="preserve" text-anchor="middle" x="124" y="-574.36" font-family="Helvetica,sans-Serif" font-size="10.00">Tundish Preheating</text>
</g>
<!-- i2&#45;&gt;i3 -->
<!-- i4 -->
<g id="node4" class="node">
<title>i4</title>
<path fill="#eef2f7" stroke="#94a3b8" d="M223.84,-553.12C223.84,-553.12 24.16,-553.12 24.16,-553.12 20.08,-553.12 16,-549.04 16,-544.96 16,-544.96 16,-536.8 16,-536.8 16,-532.72 20.08,-528.64 24.16,-528.64 24.16,-528.64 223.84,-528.64 223.84,-528.64 227.92,-528.64 232,-532.72 232,-536.8 232,-536.8 232,-544.96 232,-544.96 232,-549.04 227.92,-553.12 223.84,-553.12"/>
<text xml:space="preserve" text-anchor="middle" x="124" y="-537.88" font-family="Helvetica,sans-Serif" font-size="10.00">Torpedo Preheater</text>
</g>
<!-- i3&#45;&gt;i4 -->
<!-- i5 -->
<g id="node5" class="node">
<title>i5</title>
<path fill="#eef2f7" stroke="#94a3b8" d="M223.84,-516.64C223.84,-516.64 24.16,-516.64 24.16,-516.64 20.08,-516.64 16,-512.56 16,-508.48 16,-508.48 16,-500.32 16,-500.32 16,-496.24 20.08,-492.16 24.16,-492.16 24.16,-492.16 223.84,-492.16 223.84,-492.16 227.92,-492.16 232,-496.24 232,-500.32 232,-500.32 232,-508.48 232,-508.48 232,-512.56 227.92,-516.64 223.84,-516.64"/>
<text xml:space="preserve" text-anchor="middle" x="124" y="-501.4" font-family="Helvetica,sans-Serif" font-size="10.00">Impeller Dryer</text>
</g>
<!-- i4&#45;&gt;i5 -->
<!-- i6 -->
<g id="node6" class="node">
<title>i6</title>
<path fill="#eef2f7" stroke="#94a3b8" d="M223.84,-480.16C223.84,-480.16 24.16,-480.16 24.16,-480.16 20.08,-480.16 16,-476.08 16,-472 16,-472 16,-463.84 16,-463.84 16,-459.76 20.08,-455.68 24.16,-455.68 24.16,-455.68 223.84,-455.68 223.84,-455.68 227.92,-455.68 232,-459.76 232,-463.84 232,-463.84 232,-472 232,-472 232,-476.08 227.92,-480.16 223.84,-480.16"/>
<text xml:space="preserve" text-anchor="middle" x="124" y="-464.92" font-family="Helvetica,sans-Serif" font-size="10.00">Launder / Runner / Chutes Dryer</text>
</g>
<!-- i5&#45;&gt;i6 -->
<!-- i7 -->
<g id="node7" class="node">
<title>i7</title>
<path fill="#eef2f7" stroke="#94a3b8" d="M223.84,-443.68C223.84,-443.68 24.16,-443.68 24.16,-443.68 20.08,-443.68 16,-439.6 16,-435.52 16,-435.52 16,-427.36 16,-427.36 16,-423.28 20.08,-419.2 24.16,-419.2 24.16,-419.2 223.84,-419.2 223.84,-419.2 227.92,-419.2 232,-423.28 232,-427.36 232,-427.36 232,-435.52 232,-435.52 232,-439.6 227.92,-443.68 223.84,-443.68"/>
<text xml:space="preserve" text-anchor="middle" x="124" y="-428.44" font-family="Helvetica,sans-Serif" font-size="10.00">Ladle &amp; Tundish Cooler</text>
</g>
<!-- i6&#45;&gt;i7 -->
<!-- i8 -->
<g id="node8" class="node">
<title>i8</title>
<path fill="#eef2f7" stroke="#94a3b8" d="M223.84,-407.2C223.84,-407.2 24.16,-407.2 24.16,-407.2 20.08,-407.2 16,-403.12 16,-399.04 16,-399.04 16,-390.88 16,-390.88 16,-386.8 20.08,-382.72 24.16,-382.72 24.16,-382.72 223.84,-382.72 223.84,-382.72 227.92,-382.72 232,-386.8 232,-390.88 232,-390.88 232,-399.04 232,-399.04 232,-403.12 227.92,-407.2 223.84,-407.2"/>
<text xml:space="preserve" text-anchor="middle" x="124" y="-391.96" font-family="Helvetica,sans-Serif" font-size="10.00">Refractory Dry&#45;out Burner</text>
</g>
<!-- i7&#45;&gt;i8 -->
<!-- i9 -->
<g id="node9" class="node">
<title>i9</title>
<path fill="#eef2f7" stroke="#94a3b8" d="M223.84,-370.72C223.84,-370.72 24.16,-370.72 24.16,-370.72 20.08,-370.72 16,-366.64 16,-362.56 16,-362.56 16,-354.4 16,-354.4 16,-350.32 20.08,-346.24 24.16,-346.24 24.16,-346.24 223.84,-346.24 223.84,-346.24 227.92,-346.24 232,-350.32 232,-354.4 232,-354.4 232,-362.56 232,-362.56 232,-366.64 227.92,-370.72 223.84,-370.72"/>
<text xml:space="preserve" text-anchor="middle" x="124" y="-355.48" font-family="Helvetica,sans-Serif" font-size="10.00">RAYCON Patch&#45;up Heater</text>
</g>
<!-- i8&#45;&gt;i9 -->
<!-- i10 -->
<g id="node10" class="node">
<title>i10</title>
<path fill="#eef2f7" stroke="#94a3b8" d="M223.84,-334.24C223.84,-334.24 24.16,-334.24 24.16,-334.24 20.08,-334.24 16,-330.16 16,-326.08 16,-326.08 16,-317.92 16,-317.92 16,-313.84 20.08,-309.76 24.16,-309.76 24.16,-309.76 223.84,-309.76 223.84,-309.76 227.92,-309.76 232,-313.84 232,-317.92 232,-317.92 232,-326.08 232,-326.08 232,-330.16 227.92,-334.24 223.84,-334.24"/>
<text xml:space="preserve" text-anchor="middle" x="124" y="-319" font-family="Helvetica,sans-Serif" font-size="10.00">Scrap Dryer / Heaters</text>
</g>
<!-- i9&#45;&gt;i10 -->
<!-- i11 -->
<g id="node11" class="node">
<title>i11</title>
<path fill="#eef2f7" stroke="#94a3b8" d="M223.84,-297.76C223.84,-297.76 24.16,-297.76 24.16,-297.76 20.08,-297.76 16,-293.68 16,-289.6 16,-289.6 16,-281.44 16,-281.44 16,-277.36 20.08,-273.28 24.16,-273.28 24.16,-273.28 223.84,-273.28 223.84,-273.28 227.92,-273.28 232,-277.36 232,-281.44 232,-281.44 232,-289.6 232,-289.6 232,-293.68 227.92,-297.76 223.84,-297.76"/>
<text xml:space="preserve" text-anchor="middle" x="124" y="-282.52" font-family="Helvetica,sans-Serif" font-size="10.00">SEN Heating</text>
</g>
<!-- i10&#45;&gt;i11 -->
<!-- i12 -->
<g id="node12" class="node">
<title>i12</title>
<path fill="#eef2f7" stroke="#94a3b8" d="M223.84,-226.88C223.84,-226.88 24.16,-226.88 24.16,-226.88 20.08,-226.88 16,-222.8 16,-218.72 16,-218.72 16,-210.56 16,-210.56 16,-206.48 20.08,-202.4 24.16,-202.4 24.16,-202.4 223.84,-202.4 223.84,-202.4 227.92,-202.4 232,-206.48 232,-210.56 232,-210.56 232,-218.72 232,-218.72 232,-222.8 227.92,-226.88 223.84,-226.88"/>
<text xml:space="preserve" text-anchor="middle" x="124" y="-211.64" font-family="Helvetica,sans-Serif" font-size="10.00">Vessel Preheating</text>
</g>
<!-- i11&#45;&gt;i12 -->
<!-- c1 -->
<g id="node13" class="node">
<title>c1</title>
<path fill="#dcfce7" stroke="#16a34a" d="M463.84,-662.56C463.84,-662.56 264.16,-662.56 264.16,-662.56 260.08,-662.56 256,-658.48 256,-654.4 256,-654.4 256,-646.24 256,-646.24 256,-642.16 260.08,-638.08 264.16,-638.08 264.16,-638.08 463.84,-638.08 463.84,-638.08 467.92,-638.08 472,-642.16 472,-646.24 472,-646.24 472,-654.4 472,-654.4 472,-658.48 467.92,-662.56 463.84,-662.56"/>
<text xml:space="preserve" text-anchor="middle" x="364" y="-647.32" font-family="Helvetica,sans-Serif" font-size="10.00">Blowers</text>
</g>
<!-- c2 -->
<g id="node14" class="node">
<title>c2</title>
<path fill="#dcfce7" stroke="#16a34a" d="M463.84,-626.08C463.84,-626.08 264.16,-626.08 264.16,-626.08 260.08,-626.08 256,-622 256,-617.92 256,-617.92 256,-609.76 256,-609.76 256,-605.68 260.08,-601.6 264.16,-601.6 264.16,-601.6 463.84,-601.6 463.84,-601.6 467.92,-601.6 472,-605.68 472,-609.76 472,-609.76 472,-617.92 472,-617.92 472,-622 467.92,-626.08 463.84,-626.08"/>
<text xml:space="preserve" text-anchor="middle" x="364" y="-610.84" font-family="Helvetica,sans-Serif" font-size="10.00">Burners</text>
</g>
<!-- c1&#45;&gt;c2 -->
<!-- c3 -->
<g id="node15" class="node">
<title>c3</title>
<path fill="#dcfce7" stroke="#16a34a" d="M463.84,-589.6C463.84,-589.6 264.16,-589.6 264.16,-589.6 260.08,-589.6 256,-585.52 256,-581.44 256,-581.44 256,-573.28 256,-573.28 256,-569.2 260.08,-565.12 264.16,-565.12 264.16,-565.12 463.84,-565.12 463.84,-565.12 467.92,-565.12 472,-569.2 472,-573.28 472,-573.28 472,-581.44 472,-581.44 472,-585.52 467.92,-589.6 463.84,-589.6"/>
<text xml:space="preserve" text-anchor="middle" x="364" y="-574.36" font-family="Helvetica,sans-Serif" font-size="10.00">Heating &amp; Pumping Unit</text>
</g>
<!-- c2&#45;&gt;c3 -->
<!-- c4 -->
<g id="node16" class="node">
<title>c4</title>
<path fill="#dcfce7" stroke="#16a34a" d="M463.84,-553.12C463.84,-553.12 264.16,-553.12 264.16,-553.12 260.08,-553.12 256,-549.04 256,-544.96 256,-544.96 256,-536.8 256,-536.8 256,-532.72 260.08,-528.64 264.16,-528.64 264.16,-528.64 463.84,-528.64 463.84,-528.64 467.92,-528.64 472,-532.72 472,-536.8 472,-536.8 472,-544.96 472,-544.96 472,-549.04 467.92,-553.12 463.84,-553.12"/>
<text xml:space="preserve" text-anchor="middle" x="364" y="-537.88" font-family="Helvetica,sans-Serif" font-size="10.00">Pumping Unit</text>
</g>
<!-- c3&#45;&gt;c4 -->
<!-- c5 -->
<g id="node17" class="node">
<title>c5</title>
<path fill="#dcfce7" stroke="#16a34a" d="M463.84,-516.64C463.84,-516.64 264.16,-516.64 264.16,-516.64 260.08,-516.64 256,-512.56 256,-508.48 256,-508.48 256,-500.32 256,-500.32 256,-496.24 260.08,-492.16 264.16,-492.16 264.16,-492.16 463.84,-492.16 463.84,-492.16 467.92,-492.16 472,-496.24 472,-500.32 472,-500.32 472,-508.48 472,-508.48 472,-512.56 467.92,-516.64 463.84,-516.64"/>
<text xml:space="preserve" text-anchor="middle" x="364" y="-501.4" font-family="Helvetica,sans-Serif" font-size="10.00">Recuperators</text>
</g>
<!-- c4&#45;&gt;c5 -->
<!-- c6 -->
<g id="node18" class="node">
<title>c6</title>
<path fill="#dbeafe" stroke="#1d4ed8" d="M463.84,-480.16C463.84,-480.16 264.16,-480.16 264.16,-480.16 260.08,-480.16 256,-476.08 256,-472 256,-472 256,-463.84 256,-463.84 256,-459.76 260.08,-455.68 264.16,-455.68 264.16,-455.68 463.84,-455.68 463.84,-455.68 467.92,-455.68 472,-459.76 472,-463.84 472,-463.84 472,-472 472,-472 472,-476.08 467.92,-480.16 463.84,-480.16"/>
<text xml:space="preserve" text-anchor="middle" x="364" y="-464.92" font-family="Helvetica,sans-Serif" font-size="10.00">REGEN Burners</text>
</g>
<!-- c5&#45;&gt;c6 -->
<!-- c7 -->
<g id="node19" class="node">
<title>c7</title>
<path fill="#fef3c7" stroke="#b45309" d="M463.84,-443.68C463.84,-443.68 264.16,-443.68 264.16,-443.68 260.08,-443.68 256,-439.6 256,-435.52 256,-435.52 256,-427.36 256,-427.36 256,-423.28 260.08,-419.2 264.16,-419.2 264.16,-419.2 463.84,-419.2 463.84,-419.2 467.92,-419.2 472,-423.28 472,-427.36 472,-427.36 472,-435.52 472,-435.52 472,-439.6 467.92,-443.68 463.84,-443.68"/>
<text xml:space="preserve" text-anchor="middle" x="364" y="-428.44" font-family="Helvetica,sans-Serif" font-size="10.00">Fuel &amp; Air Skids / Trains</text>
</g>
<!-- c6&#45;&gt;c7 -->
<!-- c8 -->
<g id="node20" class="node">
<title>c8</title>
<path fill="#eef2f7" stroke="#94a3b8" d="M463.84,-407.2C463.84,-407.2 264.16,-407.2 264.16,-407.2 260.08,-407.2 256,-403.12 256,-399.04 256,-399.04 256,-390.88 256,-390.88 256,-386.8 260.08,-382.72 264.16,-382.72 264.16,-382.72 463.84,-382.72 463.84,-382.72 467.92,-382.72 472,-386.8 472,-390.88 472,-390.88 472,-399.04 472,-399.04 472,-403.12 467.92,-407.2 463.84,-407.2"/>
<text xml:space="preserve" text-anchor="middle" x="364" y="-391.96" font-family="Helvetica,sans-Serif" font-size="10.00">Self&#45;Recuperative Burners</text>
</g>
<!-- c7&#45;&gt;c8 -->
<!-- c9 -->
<g id="node21" class="node">
<title>c9</title>
<path fill="#eef2f7" stroke="#94a3b8" d="M463.84,-370.72C463.84,-370.72 264.16,-370.72 264.16,-370.72 260.08,-370.72 256,-366.64 256,-362.56 256,-362.56 256,-354.4 256,-354.4 256,-350.32 260.08,-346.24 264.16,-346.24 264.16,-346.24 463.84,-346.24 463.84,-346.24 467.92,-346.24 472,-350.32 472,-354.4 472,-354.4 472,-362.56 472,-362.56 472,-366.64 467.92,-370.72 463.84,-370.72"/>
<text xml:space="preserve" text-anchor="middle" x="364" y="-355.48" font-family="Helvetica,sans-Serif" font-size="10.00">Specialised Burners</text>
</g>
<!-- c8&#45;&gt;c9 -->
<!-- c10 -->
<g id="node22" class="node">
<title>c10</title>
<path fill="#eef2f7" stroke="#94a3b8" d="M463.84,-334.24C463.84,-334.24 264.16,-334.24 264.16,-334.24 260.08,-334.24 256,-330.16 256,-326.08 256,-326.08 256,-317.92 256,-317.92 256,-313.84 260.08,-309.76 264.16,-309.76 264.16,-309.76 463.84,-309.76 463.84,-309.76 467.92,-309.76 472,-313.84 472,-317.92 472,-317.92 472,-326.08 472,-326.08 472,-330.16 467.92,-334.24 463.84,-334.24"/>
<text xml:space="preserve" text-anchor="middle" x="364" y="-319" font-family="Helvetica,sans-Serif" font-size="10.00">Die / Bolster Heating</text>
</g>
<!-- c9&#45;&gt;c10 -->
<!-- c11 -->
<g id="node23" class="node">
<title>c11</title>
<path fill="#eef2f7" stroke="#94a3b8" d="M463.84,-297.76C463.84,-297.76 264.16,-297.76 264.16,-297.76 260.08,-297.76 256,-293.68 256,-289.6 256,-289.6 256,-281.44 256,-281.44 256,-277.36 260.08,-273.28 264.16,-273.28 264.16,-273.28 463.84,-273.28 463.84,-273.28 467.92,-273.28 472,-277.36 472,-281.44 472,-281.44 472,-289.6 472,-289.6 472,-293.68 467.92,-297.76 463.84,-297.76"/>
<text xml:space="preserve" text-anchor="middle" x="364" y="-282.52" font-family="Helvetica,sans-Serif" font-size="10.00">Hot Air Generator</text>
</g>
<!-- c10&#45;&gt;c11 -->
<!-- f1 -->
<g id="node24" class="node">
<title>f1</title>
<path fill="#dbeafe" stroke="#1d4ed8" d="M463.84,-226.88C463.84,-226.88 264.16,-226.88 264.16,-226.88 260.08,-226.88 256,-222.8 256,-218.72 256,-218.72 256,-210.56 256,-210.56 256,-206.48 260.08,-202.4 264.16,-202.4 264.16,-202.4 463.84,-202.4 463.84,-202.4 467.92,-202.4 472,-206.48 472,-210.56 472,-210.56 472,-218.72 472,-218.72 472,-222.8 467.92,-226.88 463.84,-226.88"/>
<text xml:space="preserve" text-anchor="middle" x="364" y="-211.64" font-family="Helvetica,sans-Serif" font-size="10.00">Billet Reheating Furnace</text>
</g>
<!-- c11&#45;&gt;f1 -->
<!-- f2 -->
<g id="node25" class="node">
<title>f2</title>
<path fill="#dbeafe" stroke="#1d4ed8" d="M463.84,-186.4C463.84,-186.4 264.16,-186.4 264.16,-186.4 260.08,-186.4 256,-182.32 256,-178.24 256,-178.24 256,-170.08 256,-170.08 256,-166 260.08,-161.92 264.16,-161.92 264.16,-161.92 463.84,-161.92 463.84,-161.92 467.92,-161.92 472,-166 472,-170.08 472,-170.08 472,-178.24 472,-178.24 472,-182.32 467.92,-186.4 463.84,-186.4"/>
<text xml:space="preserve" text-anchor="middle" x="364" y="-171.16" font-family="Helvetica,sans-Serif" font-size="10.00">Box Type Furnace</text>
</g>
<!-- f1&#45;&gt;f2 -->
<!-- f3 -->
<g id="node26" class="node">
<title>f3</title>
<path fill="#fef3c7" stroke="#b45309" d="M463.84,-149.92C463.84,-149.92 264.16,-149.92 264.16,-149.92 260.08,-149.92 256,-145.84 256,-141.76 256,-141.76 256,-133.6 256,-133.6 256,-129.52 260.08,-125.44 264.16,-125.44 264.16,-125.44 463.84,-125.44 463.84,-125.44 467.92,-125.44 472,-129.52 472,-133.6 472,-133.6 472,-141.76 472,-141.76 472,-145.84 467.92,-149.92 463.84,-149.92"/>
<text xml:space="preserve" text-anchor="middle" x="364" y="-134.68" font-family="Helvetica,sans-Serif" font-size="10.00">Rad Heat Gas Elements</text>
</g>
<!-- f2&#45;&gt;f3 -->
<!-- f4 -->
<g id="node27" class="node">
<title>f4</title>
<path fill="#eef2f7" stroke="#94a3b8" d="M463.84,-113.44C463.84,-113.44 264.16,-113.44 264.16,-113.44 260.08,-113.44 256,-109.36 256,-105.28 256,-105.28 256,-97.12 256,-97.12 256,-93.04 260.08,-88.96 264.16,-88.96 264.16,-88.96 463.84,-88.96 463.84,-88.96 467.92,-88.96 472,-93.04 472,-97.12 472,-97.12 472,-105.28 472,-105.28 472,-109.36 467.92,-113.44 463.84,-113.44"/>
<text xml:space="preserve" text-anchor="middle" x="364" y="-98.2" font-family="Helvetica,sans-Serif" font-size="10.00">Specialised Fabrications</text>
</g>
<!-- f3&#45;&gt;f4 -->
<!-- f5 -->
<g id="node28" class="node">
<title>f5</title>
<path fill="#eef2f7" stroke="#94a3b8" d="M463.84,-76.96C463.84,-76.96 264.16,-76.96 264.16,-76.96 260.08,-76.96 256,-72.88 256,-68.8 256,-68.8 256,-60.64 256,-60.64 256,-56.56 260.08,-52.48 264.16,-52.48 264.16,-52.48 463.84,-52.48 463.84,-52.48 467.92,-52.48 472,-56.56 472,-60.64 472,-60.64 472,-68.8 472,-68.8 472,-72.88 467.92,-76.96 463.84,-76.96"/>
<text xml:space="preserve" text-anchor="middle" x="364" y="-61.72" font-family="Helvetica,sans-Serif" font-size="10.00">Ovens</text>
</g>
<!-- f4&#45;&gt;f5 -->
<!-- f6 -->
<g id="node29" class="node">
<title>f6</title>
<path fill="#eef2f7" stroke="#94a3b8" d="M463.84,-40.48C463.84,-40.48 264.16,-40.48 264.16,-40.48 260.08,-40.48 256,-36.4 256,-32.32 256,-32.32 256,-24.16 256,-24.16 256,-20.08 260.08,-16 264.16,-16 264.16,-16 463.84,-16 463.84,-16 467.92,-16 472,-20.08 472,-24.16 472,-24.16 472,-32.32 472,-32.32 472,-36.4 467.92,-40.48 463.84,-40.48"/>
<text xml:space="preserve" text-anchor="middle" x="364" y="-25.24" font-family="Helvetica,sans-Serif" font-size="10.00">Specialised Testing Ovens</text>
</g>
<!-- f5&#45;&gt;f6 -->
</g>
</svg>
