<?xml version="1.0" encoding="UTF-8" standalone="no"?>
<!DOCTYPE svg PUBLIC "-//W3C//DTD SVG 1.1//EN"
 "http://www.w3.org/Graphics/SVG/1.1/DTD/svg11.dtd">
<!-- Generated by graphviz version 15.0.0 (0)
 -->
<!-- Title: product_map Pages: 1 -->
<svg width="1930pt" height="259pt"
 viewBox="0.00 0.00 1930.00 259.00" xmlns="http://www.w3.org/2000/svg" xmlns:xlink="http://www.w3.org/1999/xlink">
<g id="graph0" class="graph" transform="scale(1 1) rotate(0) translate(4 255)">
<title>product_map</title>
<g id="clust1" class="cluster">
<title>cluster_is</title>
<path fill="#f8fafc" stroke="#cbd5e1" d="M21.11,-8C21.11,-8 1901.59,-8 1901.59,-8 1907.59,-8 1913.59,-14 1913.59,-20 1913.59,-20 1913.59,-69 1913.59,-69 1913.59,-75 1907.59,-81 1901.59,-81 1901.59,-81 21.11,-81 21.11,-81 15.11,-81 9.11,-75 9.11,-69 9.11,-69 9.11,-20 9.11,-20 9.11,-14 15.11,-8 21.11,-8"/>
<text xml:space="preserve" text-anchor="middle" x="78.06" y="-67.1" font-family="Helvetica,sans-Serif" font-weight="bold" font-size="11.00">IRON &amp; STEEL MAKING</text>
</g>
<g id="clust2" class="cluster">
<title>cluster_ce</title>
<path fill="#f8fafc" stroke="#cbd5e1" d="M56.97,-89C56.97,-89 1764.27,-89 1764.27,-89 1770.27,-89 1776.27,-95 1776.27,-101 1776.27,-101 1776.27,-150 1776.27,-150 1776.27,-156 1770.27,-162 1764.27,-162 1764.27,-162 56.97,-162 56.97,-162 50.97,-162 44.97,-156 44.97,-150 44.97,-150 44.97,-101 44.97,-101 44.97,-95 50.97,-89 56.97,-89"/>
<text xml:space="preserve" text-anchor="middle" x="122.49" y="-148.1" font-family="Helvetica,sans-Serif" font-weight="bold" font-size="11.00">COMBUSTION EQUIPMENT</text>
</g>
<g id="clust3" class="cluster">
<title>cluster_fo</title>
<path fill="#f8fafc" stroke="#cbd5e1" d="M20,-170C20,-170 952.16,-170 952.16,-170 958.16,-170 964.16,-176 964.16,-182 964.16,-182 964.16,-231 964.16,-231 964.16,-237 958.16,-243 952.16,-243 952.16,-243 20,-243 20,-243 14,-243 8,-237 8,-231 8,-231 8,-182 8,-182 8,-176 14,-170 20,-170"/>
<text xml:space="preserve" text-anchor="middle" x="89.95" y="-229.1" font-family="Helvetica,sans-Serif" font-weight="bold" font-size="11.00">FURNACES / OVENS / OTHER</text>
</g>
<!-- i1 -->
<g id="node1" class="node">
<title>i1</title>
<path fill="#dcfce7" stroke="#16a34a" d="M132.56,-52C132.56,-52 29.11,-52 29.11,-52 23.11,-52 17.11,-46 17.11,-40 17.11,-40 17.11,-28 17.11,-28 17.11,-22 23.11,-16 29.11,-16 29.11,-16 132.56,-16 132.56,-16 138.56,-16 144.56,-22 144.56,-28 144.56,-28 144.56,-40 144.56,-40 144.56,-46 138.56,-52 132.56,-52"/>
<text xml:space="preserve" text-anchor="middle" x="80.83" y="-31" font-family="Helvetica,sans-Serif" font-size="10.00">Vertical Ladle Preheater</text>
</g>
<!-- i2 -->
<g id="node2" class="node">
<title>i2</title>
<path fill="#dcfce7" stroke="#16a34a" d="M308.79,-52C308.79,-52 193.67,-52 193.67,-52 187.67,-52 181.67,-46 181.67,-40 181.67,-40 181.67,-28 181.67,-28 181.67,-22 187.67,-16 193.67,-16 193.67,-16 308.79,-16 308.79,-16 314.79,-16 320.79,-22 320.79,-28 320.79,-28 320.79,-40 320.79,-40 320.79,-46 314.79,-52 308.79,-52"/>
<text xml:space="preserve" text-anchor="middle" x="251.23" y="-31" font-family="Helvetica,sans-Serif" font-size="10.00">Horizontal Ladle Preheater</text>
</g>
<!-- i1&#45;&gt;i2 -->
<!-- i3 -->
<g id="node3" class="node">
<title>i3</title>
<path fill="#dcfce7" stroke="#16a34a" d="M462.22,-52C462.22,-52 379.34,-52 379.34,-52 373.34,-52 367.34,-46 367.34,-40 367.34,-40 367.34,-28 367.34,-28 367.34,-22 373.34,-16 379.34,-16 379.34,-16 462.22,-16 462.22,-16 468.22,-16 474.22,-22 474.22,-28 474.22,-28 474.22,-40 474.22,-40 474.22,-46 468.22,-52 462.22,-52"/>
<text xml:space="preserve" text-anchor="middle" x="420.78" y="-31" font-family="Helvetica,sans-Serif" font-size="10.00">Tundish Preheating</text>
</g>
<!-- i2&#45;&gt;i3 -->
<!-- i4 -->
<g id="node4" class="node">
<title>i4</title>
<path fill="#eef2f7" stroke="#94a3b8" d="M625.1,-52C625.1,-52 545,-52 545,-52 539,-52 533,-46 533,-40 533,-40 533,-28 533,-28 533,-22 539,-16 545,-16 545,-16 625.1,-16 625.1,-16 631.1,-16 637.1,-22 637.1,-28 637.1,-28 637.1,-40 637.1,-40 637.1,-46 631.1,-52 625.1,-52"/>
<text xml:space="preserve" text-anchor="middle" x="585.05" y="-31" font-family="Helvetica,sans-Serif" font-size="10.00">Torpedo Preheater</text>
</g>
<!-- i3&#45;&gt;i4 -->
<!-- i5 -->
<g id="node5" class="node">
<title>i5</title>
<path fill="#eef2f7" stroke="#94a3b8" d="M756.27,-52C756.27,-52 697.32,-52 697.32,-52 691.32,-52 685.32,-46 685.32,-40 685.32,-40 685.32,-28 685.32,-28 685.32,-22 691.32,-16 697.32,-16 697.32,-16 756.27,-16 756.27,-16 762.27,-16 768.27,-22 768.27,-28 768.27,-28 768.27,-40 768.27,-40 768.27,-46 762.27,-52 756.27,-52"/>
<text xml:space="preserve" text-anchor="middle" x="726.8" y="-31" font-family="Helvetica,sans-Serif" font-size="10.00">Impeller Dryer</text>
</g>
<!-- i4&#45;&gt;i5 -->
<!-- i6 -->
<g id="node6" class="node">
<title>i6</title>
<path fill="#eef2f7" stroke="#94a3b8" d="M957.5,-52C957.5,-52 816.27,-52 816.27,-52 810.27,-52 804.27,-46 804.27,-40 804.27,-40 804.27,-28 804.27,-28 804.27,-22 810.27,-16 816.27,-16 816.27,-16 957.5,-16 957.5,-16 963.5,-16 969.5,-22 969.5,-28 969.5,-28 969.5,-40 969.5,-40 969.5,-46 963.5,-52 957.5,-52"/>
<text xml:space="preserve" text-anchor="middle" x="886.89" y="-31" font-family="Helvetica,sans-Serif" font-size="10.00">Launder / Runner / Chutes Dryer</text>
</g>
<!-- i5&#45;&gt;i6 -->
<!-- i7 -->
<g id="node7" class="node">
<title>i7</title>
<path fill="#eef2f7" stroke="#94a3b8" d="M1119.54,-52C1119.54,-52 1018.88,-52 1018.88,-52 1012.88,-52 1006.88,-46 1006.88,-40 1006.88,-40 1006.88,-28 1006.88,-28 1006.88,-22 1012.88,-16 1018.88,-16 1018.88,-16 1119.54,-16 1119.54,-16 1125.54,-16 1131.54,-22 1131.54,-28 1131.54,-28 1131.54,-40 1131.54,-40 1131.54,-46 1125.54,-52 1119.54,-52"/>
<text xml:space="preserve" text-anchor="middle" x="1069.21" y="-31" font-family="Helvetica,sans-Serif" font-size="10.00">Ladle &amp; Tundish Cooler</text>
</g>
<!-- i6&#45;&gt;i7 -->
<!-- i8 -->
<g id="node8" class="node">
<title>i8</title>
<path fill="#eef2f7" stroke="#94a3b8" d="M1292.95,-52C1292.95,-52 1182.31,-52 1182.31,-52 1176.31,-52 1170.31,-46 1170.31,-40 1170.31,-40 1170.31,-28 1170.31,-28 1170.31,-22 1176.31,-16 1182.31,-16 1182.31,-16 1292.95,-16 1292.95,-16 1298.95,-16 1304.95,-22 1304.95,-28 1304.95,-28 1304.95,-40 1304.95,-40 1304.95,-46 1298.95,-52 1292.95,-52"/>
<text xml:space="preserve" text-anchor="middle" x="1237.63" y="-31" font-family="Helvetica,sans-Serif" font-size="10.00">Refractory Dry&#45;out Burner</text>
</g>
<!-- i7&#45;&gt;i8 -->
<!-- i9 -->
<g id="node9" class="node">
<title>i9</title>
<path fill="#eef2f7" stroke="#94a3b8" d="M1468.89,-52C1468.89,-52 1354.35,-52 1354.35,-52 1348.35,-52 1342.35,-46 1342.35,-40 1342.35,-40 1342.35,-28 1342.35,-28 1342.35,-22 1348.35,-16 1354.35,-16 1354.35,-16 1468.89,-16 1468.89,-16 1474.89,-16 1480.89,-22 1480.89,-28 1480.89,-28 1480.89,-40 1480.89,-40 1480.89,-46 1474.89,-52 1468.89,-52"/>
<text xml:space="preserve" text-anchor="middle" x="1411.62" y="-31" font-family="Helvetica,sans-Serif" font-size="10.00">RAYCON Patch&#45;up Heater</text>
</g>
<!-- i8&#45;&gt;i9 -->
<!-- i10 -->
<g id="node10" class="node">
<title>i10</title>
<path fill="#eef2f7" stroke="#94a3b8" d="M1621.74,-52C1621.74,-52 1528.89,-52 1528.89,-52 1522.89,-52 1516.89,-46 1516.89,-40 1516.89,-40 1516.89,-28 1516.89,-28 1516.89,-22 1522.89,-16 1528.89,-16 1528.89,-16 1621.74,-16 1621.74,-16 1627.74,-16 1633.74,-22 1633.74,-28 1633.74,-28 1633.74,-40 1633.74,-40 1633.74,-46 1627.74,-52 1621.74,-52"/>
<text xml:space="preserve" text-anchor="middle" x="1575.32" y="-31" font-family="Helvetica,sans-Serif" font-size="10.00">Scrap Dryer / Heaters</text>
</g>
<!-- i9&#45;&gt;i10 -->
<!-- i11 -->
<g id="node11" class="node">
<title>i11</title>
<path fill="#eef2f7" stroke="#94a3b8" d="M1745.99,-52C1745.99,-52 1692.02,-52 1692.02,-52 1686.02,-52 1680.02,-46 1680.02,-40 1680.02,-40 1680.02,-28 1680.02,-28 1680.02,-22 1686.02,-16 1692.02,-16 1692.02,-16 1745.99,-16 1745.99,-16 1751.99,-16 1757.99,-22 1757.99,-28 1757.99,-28 1757.99,-40 1757.99,-40 1757.99,-46 1751.99,-52 1745.99,-52"/>
<text xml:space="preserve" text-anchor="middle" x="1719.01" y="-31" font-family="Helvetica,sans-Serif" font-size="10.00">SEN Heating</text>
</g>
<!-- i10&#45;&gt;i11 -->
<!-- i12 -->
<g id="node12" class="node">
<title>i12</title>
<path fill="#eef2f7" stroke="#94a3b8" d="M1893.59,-52C1893.59,-52 1816.27,-52 1816.27,-52 1810.27,-52 1804.27,-46 1804.27,-40 1804.27,-40 1804.27,-28 1804.27,-28 1804.27,-22 1810.27,-16 1816.27,-16 1816.27,-16 1893.59,-16 1893.59,-16 1899.59,-16 1905.59,-22 1905.59,-28 1905.59,-28 1905.59,-40 1905.59,-40 1905.59,-46 1899.59,-52 1893.59,-52"/>
<text xml:space="preserve" text-anchor="middle" x="1854.93" y="-31" font-family="Helvetica,sans-Serif" font-size="10.00">Vessel Preheating</text>
</g>
<!-- i11&#45;&gt;i12 -->
<!-- c1 -->
<g id="node13" class="node">
<title>c1</title>
<path fill="#dcfce7" stroke="#16a34a" d="M96.7,-133C96.7,-133 64.97,-133 64.97,-133 58.97,-133 52.97,-127 52.97,-121 52.97,-121 52.97,-109 52.97,-109 52.97,-103 58.97,-97 64.97,-97 64.97,-97 96.7,-97 96.7,-97 102.7,-97 108.7,-103 108.7,-109 108.7,-109 108.7,-121 108.7,-121 108.7,-127 102.7,-133 96.7,-133"/>
<text xml:space="preserve" text-anchor="middle" x="80.83" y="-112" font-family="Helvetica,sans-Serif" font-size="10.00">Blowers</text>
</g>
<!-- c2 -->
<g id="node14" class="node">
<title>c2</title>
<path fill="#dcfce7" stroke="#16a34a" d="M266.81,-133C266.81,-133 235.64,-133 235.64,-133 229.64,-133 223.64,-127 223.64,-121 223.64,-121 223.64,-109 223.64,-109 223.64,-103 229.64,-97 235.64,-97 235.64,-97 266.81,-97 266.81,-97 272.81,-97 278.81,-103 278.81,-109 278.81,-109 278.81,-121 278.81,-121 278.81,-127 272.81,-133 266.81,-133"/>
<text xml:space="preserve" text-anchor="middle" x="251.23" y="-112" font-family="Helvetica,sans-Serif" font-size="10.00">Burners</text>
</g>
<!-- c1&#45;&gt;c2 -->
<!-- c3 -->
<g id="node15" class="node">
<title>c3</title>
<path fill="#dcfce7" stroke="#16a34a" d="M472.22,-133C472.22,-133 369.34,-133 369.34,-133 363.34,-133 357.34,-127 357.34,-121 357.34,-121 357.34,-109 357.34,-109 357.34,-103 363.34,-97 369.34,-97 369.34,-97 472.22,-97 472.22,-97 478.22,-97 484.22,-103 484.22,-109 484.22,-109 484.22,-121 484.22,-121 484.22,-127 478.22,-133 472.22,-133"/>
<text xml:space="preserve" text-anchor="middle" x="420.78" y="-112" font-family="Helvetica,sans-Serif" font-size="10.00">Heating &amp; Pumping Unit</text>
</g>
<!-- c2&#45;&gt;c3 -->
<!-- c4 -->
<g id="node16" class="node">
<title>c4</title>
<path fill="#dcfce7" stroke="#16a34a" d="M613.14,-133C613.14,-133 556.95,-133 556.95,-133 550.95,-133 544.95,-127 544.95,-121 544.95,-121 544.95,-109 544.95,-109 544.95,-103 550.95,-97 556.95,-97 556.95,-97 613.14,-97 613.14,-97 619.14,-97 625.14,-103 625.14,-109 625.14,-109 625.14,-121 625.14,-121 625.14,-127 619.14,-133 613.14,-133"/>
<text xml:space="preserve" text-anchor="middle" x="585.05" y="-112" font-family="Helvetica,sans-Serif" font-size="10.00">Pumping Unit</text>
</g>
<!-- c3&#45;&gt;c4 -->
<!-- c5 -->
<g id="node17" class="node">
<title>c5</title>
<path fill="#dcfce7" stroke="#16a34a" d="M754.89,-133C754.89,-133 698.7,-133 698.7,-133 692.7,-133 686.7,-127 686.7,-121 686.7,-121 686.7,-109 686.7,-109 686.7,-103 692.7,-97 698.7,-97 698.7,-97 754.89,-97 754.89,-97 760.89,-97 766.89,-103 766.89,-109 766.89,-109 766.89,-121 766.89,-121 766.89,-127 760.89,-133 754.89,-133"/>
<text xml:space="preserve" text-anchor="middle" x="726.8" y="-112" font-family="Helvetica,sans-Serif" font-size="10.00">Recuperators</text>
</g>
<!-- c4&#45;&gt;c5 -->
<!-- c6 -->
<g id="node18" class="node">
<title>c6</title>
<path fill="#dbeafe" stroke="#1d4ed8" d="M921.64,-133C921.64,-133 852.13,-133 852.13,-133 846.13,-133 840.13,-127 840.13,-121 840.13,-121 840.13,-109 840.13,-109 840.13,-103 846.13,-97 852.13,-97 852.13,-97 921.64,-97 921.64,-97 927.64,-97 933.64,-103 933.64,-109 933.64,-109 933.64,-121 933.64,-121 933.64,-127 927.64,-133 921.64,-133"/>
<text xml:space="preserve" text-anchor="middle" x="886.89" y="-112" font-family="Helvetica,sans-Serif" font-size="10.00">REGEN Burners</text>
</g>
<!-- c5&#45;&gt;c6 -->
<!-- c7 -->
<g id="node19" class="node">
<title>c7</title>
<path fill="#fef3c7" stroke="#b45309" d="M1120.91,-133C1120.91,-133 1017.5,-133 1017.5,-133 1011.5,-133 1005.5,-127 1005.5,-121 1005.5,-121 1005.5,-109 1005.5,-109 1005.5,-103 1011.5,-97 1017.5,-97 1017.5,-97 1120.91,-97 1120.91,-97 1126.91,-97 1132.91,-103 1132.91,-109 1132.91,-109 1132.91,-121 1132.91,-121 1132.91,-127 1126.91,-133 1120.91,-133"/>
<text xml:space="preserve" text-anchor="middle" x="1069.21" y="-112" font-family="Helvetica,sans-Serif" font-size="10.00">Fuel &amp; Air Skids / Trains</text>
</g>
<!-- c6&#45;&gt;c7 -->
<!-- c8 -->
<g id="node20" class="node">
<title>c8</title>
<path fill="#eef2f7" stroke="#94a3b8" d="M1294.35,-133C1294.35,-133 1180.91,-133 1180.91,-133 1174.91,-133 1168.91,-127 1168.91,-121 1168.91,-121 1168.91,-109 1168.91,-109 1168.91,-103 1174.91,-97 1180.91,-97 1180.91,-97 1294.35,-97 1294.35,-97 1300.35,-97 1306.35,-103 1306.35,-109 1306.35,-109 1306.35,-121 1306.35,-121 1306.35,-127 1300.35,-133 1294.35,-133"/>
<text xml:space="preserve" text-anchor="middle" x="1237.63" y="-112" font-family="Helvetica,sans-Serif" font-size="10.00">Self&#45;Recuperative Burners</text>
</g>
<!-- c7&#45;&gt;c8 -->
<!-- c9 -->
<g id="node21" class="node">
<title>c9</title>
<path fill="#eef2f7" stroke="#94a3b8" d="M1454.17,-133C1454.17,-133 1369.07,-133 1369.07,-133 1363.07,-133 1357.07,-127 1357.07,-121 1357.07,-121 1357.07,-109 1357.07,-109 1357.07,-103 1363.07,-97 1369.07,-97 1369.07,-97 1454.17,-97 1454.17,-97 1460.17,-97 1466.17,-103 1466.17,-109 1466.17,-109 1466.17,-121 1466.17,-121 1466.17,-127 1460.17,-133 1454.17,-133"/>
<text xml:space="preserve" text-anchor="middle" x="1411.62" y="-112" font-family="Helvetica,sans-Serif" font-size="10.00">Specialised Burners</text>
</g>
<!-- c8&#45;&gt;c9 -->
<!-- c10 -->
<g id="node22" class="node">
<title>c10</title>
<path fill="#eef2f7" stroke="#94a3b8" d="M1619.25,-133C1619.25,-133 1531.38,-133 1531.38,-133 1525.38,-133 1519.38,-127 1519.38,-121 1519.38,-121 1519.38,-109 1519.38,-109 1519.38,-103 1525.38,-97 1531.38,-97 1531.38,-97 1619.25,-97 1619.25,-97 1625.25,-97 1631.25,-103 1631.25,-109 1631.25,-109 1631.25,-121 1631.25,-121 1631.25,-127 1625.25,-133 1619.25,-133"/>
<text xml:space="preserve" text-anchor="middle" x="1575.32" y="-112" font-family="Helvetica,sans-Serif" font-size="10.00">Die / Bolster Heating</text>
</g>
<!-- c9&#45;&gt;c10 -->
<!-- c11 -->
<g id="node23" class="node">
<title>c11</title>
<path fill="#eef2f7" stroke="#94a3b8" d="M1756.27,-133C1756.27,-133 1681.74,-133 1681.74,-133 1675.74,-133 1669.74,-127 1669.74,-121 1669.74,-121 1669.74,-109 1669.74,-109 1669.74,-103 1675.74,-97 1681.74,-97 1681.74,-97 1756.27,-97 1756.27,-97 1762.27,-97 1768.27,-103 1768.27,-109 1768.27,-109 1768.27,-121 1768.27,-121 1768.27,-127 1762.27,-133 1756.27,-133"/>
<text xml:space="preserve" text-anchor="middle" x="1719.01" y="-112" font-family="Helvetica,sans-Serif" font-size="10.00">Hot Air Generator</text>
</g>
<!-- c10&#45;&gt;c11 -->
<!-- f1 -->
<g id="node24" class="node">
<title>f1</title>
<path fill="#dbeafe" stroke="#1d4ed8" d="M133.67,-214C133.67,-214 28,-214 28,-214 22,-214 16,-208 16,-202 16,-202 16,-190 16,-190 16,-184 22,-178 28,-178 28,-178 133.67,-178 133.67,-178 139.67,-178 145.67,-184 145.67,-190 145.67,-190 145.67,-202 145.67,-202 145.67,-208 139.67,-214 133.67,-214"/>
<text xml:space="preserve" text-anchor="middle" x="80.83" y="-193" font-family="Helvetica,sans-Serif" font-size="10.00">Billet Reheating Furnace</text>
</g>
<!-- f2 -->
<g id="node25" class="node">
<title>f2</title>
<path fill="#dbeafe" stroke="#1d4ed8" d="M290.16,-214C290.16,-214 212.29,-214 212.29,-214 206.29,-214 200.29,-208 200.29,-202 200.29,-202 200.29,-190 200.29,-190 200.29,-184 206.29,-178 212.29,-178 212.29,-178 290.16,-178 290.16,-178 296.16,-178 302.16,-184 302.16,-190 302.16,-190 302.16,-202 302.16,-202 302.16,-208 296.16,-214 290.16,-214"/>
<text xml:space="preserve" text-anchor="middle" x="251.23" y="-193" font-family="Helvetica,sans-Serif" font-size="10.00">Box Type Furnace</text>
</g>
<!-- f1&#45;&gt;f2 -->
<!-- f3 -->
<g id="node26" class="node">
<title>f3</title>
<path fill="#fef3c7" stroke="#b45309" d="M472.77,-214C472.77,-214 368.79,-214 368.79,-214 362.79,-214 356.79,-208 356.79,-202 356.79,-202 356.79,-190 356.79,-190 356.79,-184 362.79,-178 368.79,-178 368.79,-178 472.77,-178 472.77,-178 478.77,-178 484.77,-184 484.77,-190 484.77,-190 484.77,-202 484.77,-202 484.77,-208 478.77,-214 472.77,-214"/>
<text xml:space="preserve" text-anchor="middle" x="420.78" y="-193" font-family="Helvetica,sans-Serif" font-size="10.00">Rad Heat Gas Elements</text>
</g>
<!-- f2&#45;&gt;f3 -->
<!-- f4 -->
<g id="node27" class="node">
<title>f4</title>
<path fill="#eef2f7" stroke="#94a3b8" d="M637.32,-214C637.32,-214 532.77,-214 532.77,-214 526.77,-214 520.77,-208 520.77,-202 520.77,-202 520.77,-190 520.77,-190 520.77,-184 526.77,-178 532.77,-178 532.77,-178 637.32,-178 637.32,-178 643.32,-178 649.32,-184 649.32,-190 649.32,-190 649.32,-202 649.32,-202 649.32,-208 643.32,-214 637.32,-214"/>
<text xml:space="preserve" text-anchor="middle" x="585.05" y="-193" font-family="Helvetica,sans-Serif" font-size="10.00">Specialised Fabrications</text>
</g>
<!-- f3&#45;&gt;f4 -->
<!-- f5 -->
<g id="node28" class="node">
<title>f5</title>
<path fill="#eef2f7" stroke="#94a3b8" d="M741.8,-214C741.8,-214 711.8,-214 711.8,-214 705.8,-214 699.8,-208 699.8,-202 699.8,-202 699.8,-190 699.8,-190 699.8,-184 705.8,-178 711.8,-178 711.8,-178 741.8,-178 741.8,-178 747.8,-178 753.8,-184 753.8,-190 753.8,-190 753.8,-202 753.8,-202 753.8,-208 747.8,-214 741.8,-214"/>
<text xml:space="preserve" text-anchor="middle" x="726.8" y="-193" font-family="Helvetica,sans-Serif" font-size="10.00">Ovens</text>
</g>
<!-- f4&#45;&gt;f5 -->
<!-- f6 -->
<g id="node29" class="node">
<title>f6</title>
<path fill="#eef2f7" stroke="#94a3b8" d="M944.16,-214C944.16,-214 829.61,-214 829.61,-214 823.61,-214 817.61,-208 817.61,-202 817.61,-202 817.61,-190 817.61,-190 817.61,-184 823.61,-178 829.61,-178 829.61,-178 944.16,-178 944.16,-178 950.16,-178 956.16,-184 956.16,-190 956.16,-190 956.16,-202 956.16,-202 956.16,-208 950.16,-214 944.16,-214"/>
<text xml:space="preserve" text-anchor="middle" x="886.89" y="-193" font-family="Helvetica,sans-Serif" font-size="10.00">Specialised Testing Ovens</text>
</g>
<!-- f5&#45;&gt;f6 -->
</g>
</svg>
