<?xml version="1.0" encoding="UTF-8" standalone="no"?>
<!DOCTYPE svg PUBLIC "-//W3C//DTD SVG 1.1//EN"
 "http://www.w3.org/Graphics/SVG/1.1/DTD/svg11.dtd">
<!-- Generated by graphviz version 15.0.0 (0)
 -->
<!-- Title: rfq_integration Pages: 1 -->
<svg width="637pt" height="438pt"
 viewBox="0.00 0.00 637.00 438.00" xmlns="http://www.w3.org/2000/svg" xmlns:xlink="http://www.w3.org/1999/xlink">
<g id="graph0" class="graph" transform="scale(1 1) rotate(0) translate(4 433.92)">
<title>rfq_integration</title>
<g id="clust1" class="cluster">
<title>cluster_rfq</title>
<path fill="#eff6ff" stroke="#bfdbfe" d="M58.07,-8C58.07,-8 198.07,-8 198.07,-8 204.07,-8 210.07,-14 210.07,-20 210.07,-20 210.07,-300.92 210.07,-300.92 210.07,-306.92 204.07,-312.92 198.07,-312.92 198.07,-312.92 58.07,-312.92 58.07,-312.92 52.07,-312.92 46.07,-306.92 46.07,-300.92 46.07,-300.92 46.07,-20 46.07,-20 46.07,-14 52.07,-8 58.07,-8"/>
<text xml:space="preserve" text-anchor="middle" x="128.07" y="-299.02" font-family="Helvetica,sans-Serif" font-weight="bold" font-size="11.00">RFQ ENQUIRY TRACKER</text>
</g>
<g id="clust2" class="cluster">
<title>cluster_gen</title>
<path fill="#fefce8" stroke="#fde68a" d="M449.07,-137.88C449.07,-137.88 593.07,-137.88 593.07,-137.88 599.07,-137.88 605.07,-143.88 605.07,-149.88 605.07,-149.88 605.07,-409.92 605.07,-409.92 605.07,-415.92 599.07,-421.92 593.07,-421.92 593.07,-421.92 449.07,-421.92 449.07,-421.92 443.07,-421.92 437.07,-415.92 437.07,-409.92 437.07,-409.92 437.07,-149.88 437.07,-149.88 437.07,-143.88 443.07,-137.88 449.07,-137.88"/>
<text xml:space="preserve" text-anchor="middle" x="521.07" y="-408.02" font-family="Helvetica,sans-Serif" font-weight="bold" font-size="11.00">OFFER GENERATOR</text>
</g>
<g id="clust3" class="cluster">
<title>cluster_drv</title>
<path fill="#ecfdf5" stroke="#86efac" d="M382.07,-13.04C382.07,-13.04 472.07,-13.04 472.07,-13.04 478.07,-13.04 484.07,-19.04 484.07,-25.04 484.07,-25.04 484.07,-74.24 484.07,-74.24 484.07,-80.24 478.07,-86.24 472.07,-86.24 472.07,-86.24 382.07,-86.24 382.07,-86.24 376.07,-86.24 370.07,-80.24 370.07,-74.24 370.07,-74.24 370.07,-25.04 370.07,-25.04 370.07,-19.04 376.07,-13.04 382.07,-13.04"/>
<text xml:space="preserve" text-anchor="middle" x="427.07" y="-72.34" font-family="Helvetica,sans-Serif" font-weight="bold" font-size="11.00">GOOGLE DRIVE</text>
</g>
<!-- list -->
<g id="node1" class="node">
<title>list</title>
<path fill="#dbeafe" stroke="#1d4ed8" d="M190.04,-283.72C190.04,-283.72 142.09,-283.72 142.09,-283.72 136.09,-283.72 130.09,-277.72 130.09,-271.72 130.09,-271.72 130.09,-259.72 130.09,-259.72 130.09,-253.72 136.09,-247.72 142.09,-247.72 142.09,-247.72 190.04,-247.72 190.04,-247.72 196.04,-247.72 202.04,-253.72 202.04,-259.72 202.04,-259.72 202.04,-271.72 202.04,-271.72 202.04,-277.72 196.04,-283.72 190.04,-283.72"/>
<text xml:space="preserve" text-anchor="middle" x="166.07" y="-262.72" font-family="Helvetica,sans-Serif" font-size="10.00">Enquiry list</text>
</g>
<!-- enq -->
<g id="node2" class="node">
<title>enq</title>
<path fill="#dbeafe" stroke="#1d4ed8" d="M190.39,-186.92C190.39,-186.92 65.74,-186.92 65.74,-186.92 59.74,-186.92 53.74,-180.92 53.74,-174.92 53.74,-174.92 53.74,-152.84 53.74,-152.84 53.74,-146.84 59.74,-140.84 65.74,-140.84 65.74,-140.84 190.39,-140.84 190.39,-140.84 196.39,-140.84 202.39,-146.84 202.39,-152.84 202.39,-152.84 202.39,-174.92 202.39,-174.92 202.39,-180.92 196.39,-186.92 190.39,-186.92"/>
<text xml:space="preserve" text-anchor="middle" x="128.07" y="-172.88" font-family="Helvetica,sans-Serif" font-size="10.00">Enquiry record</text>
<text xml:space="preserve" text-anchor="middle" x="128.07" y="-160.88" font-family="Helvetica,sans-Serif" font-size="10.00">(company · contact · item ·</text>
<text xml:space="preserve" text-anchor="middle" x="128.07" y="-148.88" font-family="Helvetica,sans-Serif" font-size="10.00">sales / technical · RFQ ref)</text>
</g>
<!-- list&#45;&gt;enq -->
<!-- enq2 -->
<g id="node3" class="node">
<title>enq2</title>
<path fill="#dcfce7" stroke="#16a34a" d="M190.5,-62.08C190.5,-62.08 83.63,-62.08 83.63,-62.08 77.63,-62.08 71.63,-56.08 71.63,-50.08 71.63,-50.08 71.63,-28 71.63,-28 71.63,-22 77.63,-16 83.63,-16 83.63,-16 190.5,-16 190.5,-16 196.5,-16 202.5,-22 202.5,-28 202.5,-28 202.5,-50.08 202.5,-50.08 202.5,-56.08 196.5,-62.08 190.5,-62.08"/>
<text xml:space="preserve" text-anchor="middle" x="137.07" y="-48.04" font-family="Helvetica,sans-Serif" font-size="10.00">Enquiry updated</text>
<text xml:space="preserve" text-anchor="middle" x="137.07" y="-36.04" font-family="Helvetica,sans-Serif" font-size="10.00">(offer no · offer date ·</text>
<text xml:space="preserve" text-anchor="middle" x="137.07" y="-24.04" font-family="Helvetica,sans-Serif" font-size="10.00">document link · costing)</text>
</g>
<!-- enq&#45;&gt;enq2 -->
<!-- form -->
<g id="node4" class="node">
<title>form</title>
<path fill="#fff7ed" stroke="#d97706" d="M559.27,-392.72C559.27,-392.72 456.86,-392.72 456.86,-392.72 450.86,-392.72 444.86,-386.72 444.86,-380.72 444.86,-380.72 444.86,-368.72 444.86,-368.72 444.86,-362.72 450.86,-356.72 456.86,-356.72 456.86,-356.72 559.27,-356.72 559.27,-356.72 565.27,-356.72 571.27,-362.72 571.27,-368.72 571.27,-368.72 571.27,-380.72 571.27,-380.72 571.27,-386.72 565.27,-392.72 559.27,-392.72"/>
<text xml:space="preserve" text-anchor="middle" x="508.07" y="-377.72" font-family="Helvetica,sans-Serif" font-size="10.00">Offer form</text>
<text xml:space="preserve" text-anchor="middle" x="508.07" y="-365.72" font-family="Helvetica,sans-Serif" font-size="10.00">(pre&#45;filled from enquiry)</text>
</g>
<!-- enq&#45;&gt;form -->
<g id="edge5" class="edge">
<title>enq&#45;&gt;form</title>
<path fill="none" stroke="#1d4ed8" stroke-width="1.4" d="M77.25,-187.36C52.95,-201.03 26.23,-221.04 12.54,-247.72 -0.7,-273.5 -6.66,-291.22 12.54,-312.92 40.01,-343.97 303.18,-362.57 434.41,-369.98"/>
<polygon fill="#1d4ed8" stroke="#1d4ed8" stroke-width="1.4" points="434.01,-372.94 442.66,-370.44 434.34,-367 434.01,-372.94"/>
<text xml:space="preserve" text-anchor="middle" x="65.8" y="-268.42" font-family="Helvetica,sans-Serif" font-size="9.00" fill="#1d4ed8">1. &quot;Generate Offer&quot; link</text>
<text xml:space="preserve" text-anchor="middle" x="65.8" y="-257.62" font-family="Helvetica,sans-Serif" font-size="9.00" fill="#1d4ed8">customer + item + RFQ ref</text>
</g>
<!-- calc -->
<g id="node5" class="node">
<title>calc</title>
<path fill="#fff7ed" stroke="#d97706" d="M585.46,-283.72C585.46,-283.72 456.67,-283.72 456.67,-283.72 450.67,-283.72 444.67,-277.72 444.67,-271.72 444.67,-271.72 444.67,-259.72 444.67,-259.72 444.67,-253.72 450.67,-247.72 456.67,-247.72 456.67,-247.72 585.46,-247.72 585.46,-247.72 591.46,-247.72 597.46,-253.72 597.46,-259.72 597.46,-259.72 597.46,-271.72 597.46,-271.72 597.46,-277.72 591.46,-283.72 585.46,-283.72"/>
<text xml:space="preserve" text-anchor="middle" x="521.07" y="-268.72" font-family="Helvetica,sans-Serif" font-size="10.00">Sizing &#45;&gt; components &#45;&gt;</text>
<text xml:space="preserve" text-anchor="middle" x="521.07" y="-256.72" font-family="Helvetica,sans-Serif" font-size="10.00">priced BOM &#45;&gt; cost summary</text>
</g>
<!-- form&#45;&gt;calc -->
<g id="edge3" class="edge">
<title>form&#45;&gt;calc</title>
<path fill="none" stroke="#64748b" d="M510.15,-356.53C512.21,-339.6 515.38,-313.5 517.78,-293.79"/>
<polygon fill="#64748b" stroke="#64748b" points="520.73,-294.17 518.8,-285.37 514.82,-293.45 520.73,-294.17"/>
<text xml:space="preserve" text-anchor="middle" x="559.44" y="-323.62" font-family="Helvetica,sans-Serif" font-size="9.00" fill="#475569">2. estimator completes</text>
</g>
<!-- out -->
<g id="node6" class="node">
<title>out</title>
<path fill="#fff7ed" stroke="#d97706" d="M585.18,-181.88C585.18,-181.88 456.95,-181.88 456.95,-181.88 450.95,-181.88 444.95,-175.88 444.95,-169.88 444.95,-169.88 444.95,-157.88 444.95,-157.88 444.95,-151.88 450.95,-145.88 456.95,-145.88 456.95,-145.88 585.18,-145.88 585.18,-145.88 591.18,-145.88 597.18,-151.88 597.18,-157.88 597.18,-157.88 597.18,-169.88 597.18,-169.88 597.18,-175.88 591.18,-181.88 585.18,-181.88"/>
<text xml:space="preserve" text-anchor="middle" x="521.07" y="-166.88" font-family="Helvetica,sans-Serif" font-size="10.00">Offer</text>
<text xml:space="preserve" text-anchor="middle" x="521.07" y="-154.88" font-family="Helvetica,sans-Serif" font-size="10.00">(Word / PDF + costing Excel)</text>
</g>
<!-- calc&#45;&gt;out -->
<g id="edge4" class="edge">
<title>calc&#45;&gt;out</title>
<path fill="none" stroke="#64748b" d="M521.07,-247.33C521.07,-232.01 521.07,-209.45 521.07,-191.8"/>
<polygon fill="#64748b" stroke="#64748b" points="524.04,-192.09 521.07,-183.59 518.09,-192.09 524.04,-192.09"/>
<text xml:space="preserve" text-anchor="middle" x="538.83" y="-214.62" font-family="Helvetica,sans-Serif" font-size="9.00" fill="#475569">generate</text>
</g>
<!-- out&#45;&gt;enq2 -->
<g id="edge6" class="edge">
<title>out&#45;&gt;enq2</title>
<path fill="none" stroke="#16a34a" stroke-width="1.7" d="M467.39,-145.38C447.61,-137.76 425.53,-127.81 406.99,-115.84 395.23,-108.25 396.44,-100.78 384.07,-94.24 354.9,-78.84 274.91,-62.85 213.78,-52.27"/>
<polygon fill="#16a34a" stroke="#16a34a" stroke-width="1.7" points="214.41,-49.35 205.53,-50.85 213.4,-55.22 214.41,-49.35"/>
<text xml:space="preserve" text-anchor="middle" x="475.53" y="-107.74" font-family="Helvetica,sans-Serif" font-size="9.00" fill="#15803d">3. write&#45;back (small API)</text>
<text xml:space="preserve" text-anchor="middle" x="475.53" y="-96.94" font-family="Helvetica,sans-Serif" font-size="9.00" fill="#15803d">offer no · date · doc link · costing</text>
</g>
<!-- folder -->
<g id="node7" class="node">
<title>folder</title>
<polygon fill="#dcfce7" stroke="#16a34a" points="476.31,-57.04 473.31,-61.04 452.31,-61.04 449.31,-57.04 377.82,-57.04 377.82,-21.04 476.31,-21.04 476.31,-57.04"/>
<text xml:space="preserve" text-anchor="middle" x="427.07" y="-42.04" font-family="Helvetica,sans-Serif" font-size="10.00">Enquiry folder</text>
<text xml:space="preserve" text-anchor="middle" x="427.07" y="-30.04" font-family="Helvetica,sans-Serif" font-size="10.00">&quot;Costing &amp; Offer&quot;</text>
</g>
<!-- out&#45;&gt;folder -->
<g id="edge7" class="edge">
<title>out&#45;&gt;folder</title>
<path fill="none" stroke="#16a34a" d="M536.9,-145.65C548.16,-131.21 559.59,-110.43 549.07,-94.24 534.9,-72.45 509.75,-59.35 485.94,-51.51"/>
<polygon fill="#16a34a" stroke="#16a34a" points="487.01,-48.73 478.01,-49.1 485.27,-54.42 487.01,-48.73"/>
<text xml:space="preserve" text-anchor="middle" x="590.87" y="-102.34" font-family="Helvetica,sans-Serif" font-size="9.00" fill="#15803d">files offer + costing</text>
</g>
<!-- tech -->
<g id="node8" class="node">
<title>tech</title>
<ellipse fill="#fee2e2" stroke="#b91c1c" cx="288.07" cy="-163.88" rx="62.79" ry="18"/>
<text xml:space="preserve" text-anchor="middle" x="288.07" y="-160.88" font-family="Helvetica,sans-Serif" font-size="10.00" fill="#7f1d1d">Technical person</text>
</g>
<!-- out&#45;&gt;tech -->
<g id="edge8" class="edge">
<title>out&#45;&gt;tech</title>
<path fill="none" stroke="#b91c1c" stroke-dasharray="5,2" d="M444.68,-163.88C417.81,-163.88 387.71,-163.88 361.12,-163.88"/>
<polygon fill="#b91c1c" stroke="#b91c1c" points="361.13,-160.91 352.63,-163.88 361.13,-166.86 361.13,-160.91"/>
<text xml:space="preserve" text-anchor="middle" x="397.9" y="-169.58" font-family="Helvetica,sans-Serif" font-size="9.00" fill="#b91c1c">today: hands over</text>
</g>
<!-- tech&#45;&gt;enq2 -->
<g id="edge9" class="edge">
<title>tech&#45;&gt;enq2</title>
<path fill="none" stroke="#b91c1c" stroke-dasharray="5,2" d="M249.12,-149.3C213.21,-136.64 164.97,-119.21 161.74,-115.84 150.35,-103.96 144.21,-86.76 140.91,-71.74"/>
<polygon fill="#b91c1c" stroke="#b91c1c" points="143.9,-71.55 139.41,-63.75 138.06,-72.66 143.9,-71.55"/>
<text xml:space="preserve" text-anchor="middle" x="222.4" y="-102.34" font-family="Helvetica,sans-Serif" font-size="9.00" fill="#b91c1c">today: manual upload + re&#45;key</text>
</g>
<!-- tech&#45;&gt;folder -->
<g id="edge10" class="edge">
<title>tech&#45;&gt;folder</title>
<path fill="none" stroke="#b91c1c" stroke-dasharray="5,2" d="M285.82,-145.58C284.82,-130.51 285.84,-108.85 297,-94.24 314.2,-71.74 342.45,-58.5 368.23,-50.76"/>
<polygon fill="#b91c1c" stroke="#b91c1c" points="368.75,-53.7 376.14,-48.55 367.15,-47.97 368.75,-53.7"/>
<text xml:space="preserve" text-anchor="middle" x="340.03" y="-102.34" font-family="Helvetica,sans-Serif" font-size="9.00" fill="#b91c1c">today: manual upload</text>
</g>
</g>
</svg>
