<?xml version="1.0" encoding="UTF-8" standalone="no"?>
<!DOCTYPE svg PUBLIC "-//W3C//DTD SVG 1.1//EN"
 "http://www.w3.org/Graphics/SVG/1.1/DTD/svg11.dtd">
<!-- Generated by graphviz version 15.0.0 (0)
 -->
<!-- Title: rfq_integration Pages: 1 -->
<svg width="755pt" height="182pt"
 viewBox="0.00 0.00 755.00 182.00" xmlns="http://www.w3.org/2000/svg" xmlns:xlink="http://www.w3.org/1999/xlink">
<g id="graph0" class="graph" transform="scale(1 1) rotate(0) translate(4 178)">
<title>rfq_integration</title>
<g id="clust1" class="cluster">
<title>cluster_rfq</title>
<path fill="#eff6ff" stroke="#bfdbfe" d="M596.15,-8C596.15,-8 726.78,-8 726.78,-8 732.78,-8 738.78,-14 738.78,-20 738.78,-20 738.78,-154 738.78,-154 738.78,-160 732.78,-166 726.78,-166 726.78,-166 596.15,-166 596.15,-166 590.15,-166 584.15,-160 584.15,-154 584.15,-154 584.15,-20 584.15,-20 584.15,-14 590.15,-8 596.15,-8"/>
<text xml:space="preserve" text-anchor="middle" x="661.46" y="-152.1" font-family="Helvetica,sans-Serif" font-weight="bold" font-size="11.00">RFQ ENQUIRY TRACKER</text>
</g>
<g id="clust2" class="cluster">
<title>cluster_gen</title>
<path fill="#fefce8" stroke="#fde68a" d="M20,-80C20,-80 435.63,-80 435.63,-80 441.63,-80 447.63,-86 447.63,-92 447.63,-92 447.63,-153 447.63,-153 447.63,-159 441.63,-165 435.63,-165 435.63,-165 20,-165 20,-165 14,-165 8,-159 8,-153 8,-153 8,-92 8,-92 8,-86 14,-80 20,-80"/>
<text xml:space="preserve" text-anchor="middle" x="227.81" y="-151.1" font-family="Helvetica,sans-Serif" font-weight="bold" font-size="11.00">OFFER GENERATOR</text>
</g>
<!-- enq -->
<g id="node1" class="node">
<title>enq</title>
<path fill="#dbeafe" stroke="#1d4ed8" d="M718.78,-63.76C718.78,-63.76 604.15,-63.76 604.15,-63.76 598.15,-63.76 592.15,-57.76 592.15,-51.76 592.15,-51.76 592.15,-28.24 592.15,-28.24 592.15,-22.24 598.15,-16.24 604.15,-16.24 604.15,-16.24 718.78,-16.24 718.78,-16.24 724.78,-16.24 730.78,-22.24 730.78,-28.24 730.78,-28.24 730.78,-51.76 730.78,-51.76 730.78,-57.76 724.78,-63.76 718.78,-63.76"/>
<text xml:space="preserve" text-anchor="middle" x="661.46" y="-49" font-family="Helvetica,sans-Serif" font-size="10.00">Enquiry</text>
<text xml:space="preserve" text-anchor="middle" x="661.46" y="-37" font-family="Helvetica,sans-Serif" font-size="10.00">(company, contact, item,</text>
<text xml:space="preserve" text-anchor="middle" x="661.46" y="-25" font-family="Helvetica,sans-Serif" font-size="10.00">sales / technical, RFQ ref)</text>
</g>
<!-- form -->
<g id="node3" class="node">
<title>form</title>
<path fill="#fff7ed" stroke="#d97706" d="M130.4,-127C130.4,-127 28,-127 28,-127 22,-127 16,-121 16,-115 16,-115 16,-103 16,-103 16,-97 22,-91 28,-91 28,-91 130.4,-91 130.4,-91 136.4,-91 142.4,-97 142.4,-103 142.4,-103 142.4,-115 142.4,-115 142.4,-121 136.4,-127 130.4,-127"/>
<text xml:space="preserve" text-anchor="middle" x="79.2" y="-112" font-family="Helvetica,sans-Serif" font-size="10.00">Offer form</text>
<text xml:space="preserve" text-anchor="middle" x="79.2" y="-100" font-family="Helvetica,sans-Serif" font-size="10.00">(pre&#45;filled from enquiry)</text>
</g>
<!-- enq&#45;&gt;form -->
<g id="edge1" class="edge">
<title>enq&#45;&gt;form</title>
<path fill="none" stroke="#64748b" d="M591.73,-38.19C516.66,-37.25 393.09,-38.74 287.94,-54.4 239.79,-61.57 186.74,-75.62 146.29,-87.68"/>
<polygon fill="#64748b" stroke="#64748b" points="145.55,-84.79 138.27,-90.1 147.26,-90.49 145.55,-84.79"/>
<text xml:space="preserve" text-anchor="middle" x="363.79" y="-67.9" font-family="Helvetica,sans-Serif" font-size="9.00" fill="#475569"> &#160;1. Generate Offer</text>
<text xml:space="preserve" text-anchor="middle" x="363.79" y="-57.1" font-family="Helvetica,sans-Serif" font-size="9.00" fill="#475569"> &#160;(link carries enquiry details)</text>
</g>
<!-- upd -->
<g id="node2" class="node">
<title>upd</title>
<path fill="#dcfce7" stroke="#16a34a" d="M712.12,-136.76C712.12,-136.76 610.81,-136.76 610.81,-136.76 604.81,-136.76 598.81,-130.76 598.81,-124.76 598.81,-124.76 598.81,-101.24 598.81,-101.24 598.81,-95.24 604.81,-89.24 610.81,-89.24 610.81,-89.24 712.12,-89.24 712.12,-89.24 718.12,-89.24 724.12,-95.24 724.12,-101.24 724.12,-101.24 724.12,-124.76 724.12,-124.76 724.12,-130.76 718.12,-136.76 712.12,-136.76"/>
<text xml:space="preserve" text-anchor="middle" x="661.46" y="-122" font-family="Helvetica,sans-Serif" font-size="10.00">Enquiry updated</text>
<text xml:space="preserve" text-anchor="middle" x="661.46" y="-110" font-family="Helvetica,sans-Serif" font-size="10.00">(offer no, offer date,</text>
<text xml:space="preserve" text-anchor="middle" x="661.46" y="-98" font-family="Helvetica,sans-Serif" font-size="10.00">document link, costing)</text>
</g>
<!-- offer -->
<g id="node4" class="node">
<title>offer</title>
<path fill="#fff7ed" stroke="#d97706" d="M427.63,-135.76C427.63,-135.76 299.94,-135.76 299.94,-135.76 293.94,-135.76 287.94,-129.76 287.94,-123.76 287.94,-123.76 287.94,-100.24 287.94,-100.24 287.94,-94.24 293.94,-88.24 299.94,-88.24 299.94,-88.24 427.63,-88.24 427.63,-88.24 433.63,-88.24 439.63,-94.24 439.63,-100.24 439.63,-100.24 439.63,-123.76 439.63,-123.76 439.63,-129.76 433.63,-135.76 427.63,-135.76"/>
<text xml:space="preserve" text-anchor="middle" x="363.79" y="-121" font-family="Helvetica,sans-Serif" font-size="10.00">Priced offer</text>
<text xml:space="preserve" text-anchor="middle" x="363.79" y="-109" font-family="Helvetica,sans-Serif" font-size="10.00">(Word / PDF + costing Excel,</text>
<text xml:space="preserve" text-anchor="middle" x="363.79" y="-97" font-family="Helvetica,sans-Serif" font-size="10.00">filed to shared drive)</text>
</g>
<!-- form&#45;&gt;offer -->
<g id="edge2" class="edge">
<title>form&#45;&gt;offer</title>
<path fill="none" stroke="#64748b" d="M142.57,-109.66C182.22,-110.08 234.1,-110.63 277.53,-111.09"/>
<polygon fill="#64748b" stroke="#64748b" points="277.48,-114.07 286.01,-111.18 277.54,-108.12 277.48,-114.07"/>
<text xml:space="preserve" text-anchor="middle" x="215.17" y="-113.56" font-family="Helvetica,sans-Serif" font-size="9.00" fill="#475569"> &#160;2. estimator completes</text>
</g>
<!-- offer&#45;&gt;upd -->
<g id="edge3" class="edge">
<title>offer&#45;&gt;upd</title>
<path fill="none" stroke="#16a34a" d="M439.78,-112.25C485.43,-112.41 543.43,-112.6 588.52,-112.76"/>
<polygon fill="#16a34a" stroke="#16a34a" points="588.49,-115.73 597,-112.79 588.51,-109.78 588.49,-115.73"/>
<text xml:space="preserve" text-anchor="middle" x="515.89" y="-115.38" font-family="Helvetica,sans-Serif" font-size="9.00" fill="#16a34a"> &#160;3. write&#45;back (small API)</text>
</g>
</g>
</svg>
