<?xml version="1.0" encoding="UTF-8" standalone="no"?>
<!DOCTYPE svg PUBLIC "-//W3C//DTD SVG 1.1//EN"
 "http://www.w3.org/Graphics/SVG/1.1/DTD/svg11.dtd">
<!-- Generated by graphviz version 15.0.0 (0)
 -->
<!-- Title: offer_flow Pages: 1 -->
<svg width="318pt" height="652pt"
 viewBox="0.00 0.00 318.00 652.00" xmlns="http://www.w3.org/2000/svg" xmlns:xlink="http://www.w3.org/1999/xlink">
<g id="graph0" class="graph" transform="scale(1 1) rotate(0) translate(4 648.24)">
<title>offer_flow</title>
<!-- A -->
<g id="node1" class="node">
<title>A</title>
<ellipse fill="#dbeafe" stroke="#1d4ed8" cx="149.53" cy="-625.74" rx="80.47" ry="18.5"/>
<text xml:space="preserve" text-anchor="middle" x="149.53" y="-622.44" font-family="Helvetica,sans-Serif" font-size="11.00">Select equipment</text>
</g>
<!-- B -->
<g id="node2" class="node">
<title>B</title>
<path fill="#eff6ff" stroke="#1d4ed8" d="M216.11,-570.24C216.11,-570.24 82.95,-570.24 82.95,-570.24 76.95,-570.24 70.95,-564.24 70.95,-558.24 70.95,-558.24 70.95,-546.24 70.95,-546.24 70.95,-540.24 76.95,-534.24 82.95,-534.24 82.95,-534.24 216.11,-534.24 216.11,-534.24 222.11,-534.24 228.11,-540.24 228.11,-546.24 228.11,-546.24 228.11,-558.24 228.11,-558.24 228.11,-564.24 222.11,-570.24 216.11,-570.24"/>
<text xml:space="preserve" text-anchor="middle" x="149.53" y="-548.94" font-family="Helvetica,sans-Serif" font-size="11.00">Fill parameters (web form)</text>
</g>
<!-- A&#45;&gt;B -->
<g id="edge1" class="edge">
<title>A&#45;&gt;B</title>
<path fill="none" stroke="#64748b" d="M149.53,-607.06C149.53,-598.93 149.53,-589.09 149.53,-580.07"/>
<polygon fill="#64748b" stroke="#64748b" points="152.33,-580.22 149.53,-572.22 146.73,-580.22 152.33,-580.22"/>
</g>
<!-- C -->
<g id="node3" class="node">
<title>C</title>
<path fill="#eff6ff" stroke="#1d4ed8" d="M239.06,-497.24C239.06,-497.24 60.01,-497.24 60.01,-497.24 54.01,-497.24 48.01,-491.24 48.01,-485.24 48.01,-485.24 48.01,-469.88 48.01,-469.88 48.01,-463.88 54.01,-457.88 60.01,-457.88 60.01,-457.88 239.06,-457.88 239.06,-457.88 245.06,-457.88 251.06,-463.88 251.06,-469.88 251.06,-469.88 251.06,-485.24 251.06,-485.24 251.06,-491.24 245.06,-497.24 239.06,-497.24"/>
<text xml:space="preserve" text-anchor="middle" x="149.53" y="-480.86" font-family="Helvetica,sans-Serif" font-size="11.00">Calculate sizing</text>
<text xml:space="preserve" text-anchor="middle" x="149.53" y="-467.66" font-family="Helvetica,sans-Serif" font-size="11.00">pipes / burner / blower / recuperator</text>
</g>
<!-- B&#45;&gt;C -->
<g id="edge2" class="edge">
<title>B&#45;&gt;C</title>
<path fill="none" stroke="#64748b" d="M149.53,-534.02C149.53,-526 149.53,-516.25 149.53,-507.18"/>
<polygon fill="#64748b" stroke="#64748b" points="152.33,-507.22 149.53,-499.22 146.73,-507.22 152.33,-507.22"/>
</g>
<!-- D -->
<g id="node4" class="node">
<title>D</title>
<path fill="#eff6ff" stroke="#1d4ed8" d="M251.3,-420.88C251.3,-420.88 47.77,-420.88 47.77,-420.88 41.77,-420.88 35.77,-414.88 35.77,-408.88 35.77,-408.88 35.77,-396.88 35.77,-396.88 35.77,-390.88 41.77,-384.88 47.77,-384.88 47.77,-384.88 251.3,-384.88 251.3,-384.88 257.3,-384.88 263.3,-390.88 263.3,-396.88 263.3,-396.88 263.3,-408.88 263.3,-408.88 263.3,-414.88 257.3,-420.88 251.3,-420.88"/>
<text xml:space="preserve" text-anchor="middle" x="149.53" y="-399.58" font-family="Helvetica,sans-Serif" font-size="11.00">Select catalogue parts (selection engine)</text>
</g>
<!-- C&#45;&gt;D -->
<g id="edge3" class="edge">
<title>C&#45;&gt;D</title>
<path fill="none" stroke="#64748b" d="M149.53,-457.46C149.53,-449.19 149.53,-439.36 149.53,-430.39"/>
<polygon fill="#64748b" stroke="#64748b" points="152.33,-430.62 149.53,-422.62 146.73,-430.62 152.33,-430.62"/>
</g>
<!-- E -->
<g id="node5" class="node">
<title>E</title>
<path fill="#eff6ff" stroke="#1d4ed8" d="M246.39,-347.88C246.39,-347.88 52.68,-347.88 52.68,-347.88 46.68,-347.88 40.68,-341.88 40.68,-335.88 40.68,-335.88 40.68,-323.88 40.68,-323.88 40.68,-317.88 46.68,-311.88 52.68,-311.88 52.68,-311.88 246.39,-311.88 246.39,-311.88 252.39,-311.88 258.39,-317.88 258.39,-323.88 258.39,-323.88 258.39,-335.88 258.39,-335.88 258.39,-341.88 252.39,-347.88 246.39,-347.88"/>
<text xml:space="preserve" text-anchor="middle" x="149.53" y="-326.58" font-family="Helvetica,sans-Serif" font-size="11.00">Build priced BOM (grouped by system)</text>
</g>
<!-- D&#45;&gt;E -->
<g id="edge4" class="edge">
<title>D&#45;&gt;E</title>
<path fill="none" stroke="#64748b" d="M149.53,-384.69C149.53,-376.5 149.53,-366.5 149.53,-357.36"/>
<polygon fill="#64748b" stroke="#64748b" points="152.33,-357.42 149.53,-349.42 146.73,-357.42 152.33,-357.42"/>
</g>
<!-- F -->
<g id="node6" class="node">
<title>F</title>
<path fill="#eff6ff" stroke="#1d4ed8" d="M239.18,-188.72C239.18,-188.72 51.89,-188.72 51.89,-188.72 45.89,-188.72 39.89,-182.72 39.89,-176.72 39.89,-176.72 39.89,-161.36 39.89,-161.36 39.89,-155.36 45.89,-149.36 51.89,-149.36 51.89,-149.36 239.18,-149.36 239.18,-149.36 245.18,-149.36 251.18,-155.36 251.18,-161.36 251.18,-161.36 251.18,-176.72 251.18,-176.72 251.18,-182.72 245.18,-188.72 239.18,-188.72"/>
<text xml:space="preserve" text-anchor="middle" x="145.53" y="-172.34" font-family="Helvetica,sans-Serif" font-size="11.00">Cost summary</text>
<text xml:space="preserve" text-anchor="middle" x="145.53" y="-159.14" font-family="Helvetica,sans-Serif" font-size="11.00">bought&#45;out x markup + ENCON items</text>
</g>
<!-- E&#45;&gt;F -->
<g id="edge5" class="edge">
<title>E&#45;&gt;F</title>
<path fill="none" stroke="#64748b" d="M149.1,-311.58C148.41,-284.4 147.08,-231.41 146.25,-198.54"/>
<polygon fill="#64748b" stroke="#64748b" points="149.05,-198.48 146.05,-190.55 143.45,-198.62 149.05,-198.48"/>
</g>
<!-- J -->
<g id="node10" class="node">
<title>J</title>
<path fill="#fef3c7" stroke="#b45309" d="M297.54,-265.08C297.54,-265.08 173.52,-265.08 173.52,-265.08 167.52,-265.08 161.52,-259.08 161.52,-253.08 161.52,-253.08 161.52,-237.72 161.52,-237.72 161.52,-231.72 167.52,-225.72 173.52,-225.72 173.52,-225.72 297.54,-225.72 297.54,-225.72 303.54,-225.72 309.54,-231.72 309.54,-237.72 309.54,-237.72 309.54,-253.08 309.54,-253.08 309.54,-259.08 303.54,-265.08 297.54,-265.08"/>
<text xml:space="preserve" text-anchor="middle" x="235.53" y="-248.7" font-family="Helvetica,sans-Serif" font-size="11.00">Combined Offer</text>
<text xml:space="preserve" text-anchor="middle" x="235.53" y="-235.5" font-family="Helvetica,sans-Serif" font-size="11.00">one customer / one T&amp;C</text>
</g>
<!-- E&#45;&gt;J -->
<g id="edge10" class="edge">
<title>E&#45;&gt;J</title>
<path fill="none" stroke="#64748b" stroke-dasharray="5,2" d="M167.77,-311.39C179.78,-299.87 195.7,-284.61 209.09,-271.76"/>
<polygon fill="#64748b" stroke="#64748b" points="210.9,-273.91 214.73,-266.35 207.02,-269.87 210.9,-273.91"/>
<text xml:space="preserve" text-anchor="middle" x="230.23" y="-285.78" font-family="Times,serif" font-size="9.00" fill="#b45309">multiple equipment</text>
</g>
<!-- G -->
<g id="node7" class="node">
<title>G</title>
<path fill="#eff6ff" stroke="#1d4ed8" d="M117.07,-112.36C117.07,-112.36 12,-112.36 12,-112.36 6,-112.36 0,-106.36 0,-100.36 0,-100.36 0,-85 0,-85 0,-79 6,-73 12,-73 12,-73 117.07,-73 117.07,-73 123.07,-73 129.07,-79 129.07,-85 129.07,-85 129.07,-100.36 129.07,-100.36 129.07,-106.36 123.07,-112.36 117.07,-112.36"/>
<text xml:space="preserve" text-anchor="middle" x="64.53" y="-95.98" font-family="Helvetica,sans-Serif" font-size="11.00">Generate Word offer</text>
<text xml:space="preserve" text-anchor="middle" x="64.53" y="-82.78" font-family="Helvetica,sans-Serif" font-size="11.00">then convert to PDF</text>
</g>
<!-- F&#45;&gt;G -->
<g id="edge6" class="edge">
<title>F&#45;&gt;G</title>
<path fill="none" stroke="#64748b" d="M124.67,-148.89C114.75,-139.78 102.76,-128.77 92.1,-118.99"/>
<polygon fill="#64748b" stroke="#64748b" points="94.22,-117.14 86.44,-113.79 90.44,-121.26 94.22,-117.14"/>
</g>
<!-- H -->
<g id="node8" class="node">
<title>H</title>
<path fill="#eff6ff" stroke="#1d4ed8" d="M295.65,-110.68C295.65,-110.68 159.42,-110.68 159.42,-110.68 153.42,-110.68 147.42,-104.68 147.42,-98.68 147.42,-98.68 147.42,-86.68 147.42,-86.68 147.42,-80.68 153.42,-74.68 159.42,-74.68 159.42,-74.68 295.65,-74.68 295.65,-74.68 301.65,-74.68 307.65,-80.68 307.65,-86.68 307.65,-86.68 307.65,-98.68 307.65,-98.68 307.65,-104.68 301.65,-110.68 295.65,-110.68"/>
<text xml:space="preserve" text-anchor="middle" x="227.53" y="-89.38" font-family="Helvetica,sans-Serif" font-size="11.00">Costing Excel (multi&#45;sheet)</text>
</g>
<!-- F&#45;&gt;H -->
<g id="edge7" class="edge">
<title>F&#45;&gt;H</title>
<path fill="none" stroke="#64748b" d="M166.65,-148.89C177.34,-139.2 190.41,-127.35 201.69,-117.11"/>
<polygon fill="#64748b" stroke="#64748b" points="203.28,-119.45 207.33,-112 199.52,-115.3 203.28,-119.45"/>
</g>
<!-- I -->
<g id="node9" class="node">
<title>I</title>
<path fill="#dcfce7" stroke="#16a34a" d="M217.1,-32.73C217.1,-34.53 185.02,-36 145.53,-36 106.04,-36 73.96,-34.53 73.96,-32.73 73.96,-32.73 73.96,-3.27 73.96,-3.27 73.96,-1.47 106.04,0 145.53,0 185.02,0 217.1,-1.47 217.1,-3.27 217.1,-3.27 217.1,-32.73 217.1,-32.73"/>
<path fill="none" stroke="#16a34a" d="M217.1,-32.73C217.1,-30.92 185.02,-29.45 145.53,-29.45 106.04,-29.45 73.96,-30.92 73.96,-32.73"/>
<text xml:space="preserve" text-anchor="middle" x="145.53" y="-14.7" font-family="Helvetica,sans-Serif" font-size="11.00">Upload to Google Drive</text>
</g>
<!-- G&#45;&gt;I -->
<g id="edge8" class="edge">
<title>G&#45;&gt;I</title>
<path fill="none" stroke="#64748b" d="M85.82,-72.58C96.04,-63.41 108.4,-52.32 119.21,-42.62"/>
<polygon fill="#64748b" stroke="#64748b" points="120.85,-44.91 124.93,-37.49 117.11,-40.74 120.85,-44.91"/>
</g>
<!-- H&#45;&gt;I -->
<g id="edge9" class="edge">
<title>H&#45;&gt;I</title>
<path fill="none" stroke="#64748b" d="M208.1,-74.46C197.35,-64.93 183.84,-52.96 172.13,-42.57"/>
<polygon fill="#64748b" stroke="#64748b" points="174.09,-40.57 166.24,-37.36 170.37,-44.76 174.09,-40.57"/>
</g>
<!-- J&#45;&gt;F -->
<g id="edge11" class="edge">
<title>J&#45;&gt;F</title>
<path fill="none" stroke="#64748b" stroke-dasharray="5,2" d="M212.36,-225.25C201.23,-216.06 187.75,-204.92 175.82,-195.07"/>
<polygon fill="#64748b" stroke="#64748b" points="177.75,-193.03 169.8,-190.09 174.18,-197.34 177.75,-193.03"/>
</g>
</g>
</svg>
