<?xml version="1.0" encoding="UTF-8" standalone="no"?>
<!DOCTYPE svg PUBLIC "-//W3C//DTD SVG 1.1//EN"
 "http://www.w3.org/Graphics/SVG/1.1/DTD/svg11.dtd">
<!-- Generated by graphviz version 15.0.0 (0)
 -->
<!-- Title: system_flows Pages: 1 -->
<svg width="799pt" height="1052pt"
 viewBox="0.00 0.00 799.00 1052.00" xmlns="http://www.w3.org/2000/svg" xmlns:xlink="http://www.w3.org/1999/xlink">
<g id="graph0" class="graph" transform="scale(1 1) rotate(0) translate(4 1048.34)">
<title>system_flows</title>
<g id="clust1" class="cluster">
<title>cluster_ui</title>
<path fill="#f8fafc" stroke="#cbd5e1" d="M124.02,-799.9C124.02,-799.9 432.02,-799.9 432.02,-799.9 438.02,-799.9 444.02,-805.9 444.02,-811.9 444.02,-811.9 444.02,-1024.34 444.02,-1024.34 444.02,-1030.34 438.02,-1036.34 432.02,-1036.34 432.02,-1036.34 124.02,-1036.34 124.02,-1036.34 118.02,-1036.34 112.02,-1030.34 112.02,-1024.34 112.02,-1024.34 112.02,-811.9 112.02,-811.9 112.02,-805.9 118.02,-799.9 124.02,-799.9"/>
<text xml:space="preserve" text-anchor="middle" x="278.02" y="-1022.44" font-family="Helvetica,sans-Serif" font-weight="bold" font-size="11.00">WEB UI</text>
</g>
<g id="clust2" class="cluster">
<title>cluster_pipe</title>
<path fill="#f1f5f9" stroke="#cbd5e1" d="M453.02,-263.68C453.02,-263.68 667.02,-263.68 667.02,-263.68 673.02,-263.68 679.02,-269.68 679.02,-275.68 679.02,-275.68 679.02,-760.3 679.02,-760.3 679.02,-766.3 673.02,-772.3 667.02,-772.3 667.02,-772.3 453.02,-772.3 453.02,-772.3 447.02,-772.3 441.02,-766.3 441.02,-760.3 441.02,-760.3 441.02,-275.68 441.02,-275.68 441.02,-269.68 447.02,-263.68 453.02,-263.68"/>
<text xml:space="preserve" text-anchor="middle" x="560.02" y="-758.4" font-family="Helvetica,sans-Serif" font-weight="bold" font-size="11.00">CALCULATION PIPELINE &#160;(FastAPI / main.py)</text>
</g>
<g id="clust3" class="cluster">
<title>cluster_db</title>
<path fill="#ecfdf5" stroke="#86efac" d="M125.02,-581.52C125.02,-581.52 421.02,-581.52 421.02,-581.52 427.02,-581.52 433.02,-587.52 433.02,-593.52 433.02,-593.52 433.02,-668.1 433.02,-668.1 433.02,-674.1 427.02,-680.1 421.02,-680.1 421.02,-680.1 125.02,-680.1 125.02,-680.1 119.02,-680.1 113.02,-674.1 113.02,-668.1 113.02,-668.1 113.02,-593.52 113.02,-593.52 113.02,-587.52 119.02,-581.52 125.02,-581.52"/>
<text xml:space="preserve" text-anchor="middle" x="273.02" y="-666.2" font-family="Helvetica,sans-Serif" font-weight="bold" font-size="11.00">DATABASE &#160;(vlph.db)</text>
</g>
<g id="clust4" class="cluster">
<title>cluster_out</title>
<path fill="#fefce8" stroke="#fde68a" d="M422.02,-8C422.02,-8 667.02,-8 667.02,-8 673.02,-8 679.02,-14 679.02,-20 679.02,-20 679.02,-224.08 679.02,-224.08 679.02,-230.08 673.02,-236.08 667.02,-236.08 667.02,-236.08 422.02,-236.08 422.02,-236.08 416.02,-236.08 410.02,-230.08 410.02,-224.08 410.02,-224.08 410.02,-20 410.02,-20 410.02,-14 416.02,-8 422.02,-8"/>
<text xml:space="preserve" text-anchor="middle" x="544.52" y="-222.18" font-family="Helvetica,sans-Serif" font-weight="bold" font-size="11.00">OUTPUT</text>
</g>
<!-- dash -->
<g id="node1" class="node">
<title>dash</title>
<path fill="#eff6ff" stroke="#1d4ed8" d="M374.56,-1007.14C374.56,-1007.14 329.48,-1007.14 329.48,-1007.14 323.48,-1007.14 317.48,-1001.14 317.48,-995.14 317.48,-995.14 317.48,-983.14 317.48,-983.14 317.48,-977.14 323.48,-971.14 329.48,-971.14 329.48,-971.14 374.56,-971.14 374.56,-971.14 380.56,-971.14 386.56,-977.14 386.56,-983.14 386.56,-983.14 386.56,-995.14 386.56,-995.14 386.56,-1001.14 380.56,-1007.14 374.56,-1007.14"/>
<text xml:space="preserve" text-anchor="middle" x="352.02" y="-986.14" font-family="Helvetica,sans-Serif" font-size="10.00">Dashboard</text>
</g>
<!-- forms -->
<g id="node2" class="node">
<title>forms</title>
<path fill="#dbeafe" stroke="#1d4ed8" d="M380.68,-852.54C380.68,-852.54 233.35,-852.54 233.35,-852.54 227.35,-852.54 221.35,-846.54 221.35,-840.54 221.35,-840.54 221.35,-819.9 221.35,-819.9 221.35,-813.9 227.35,-807.9 233.35,-807.9 233.35,-807.9 380.68,-807.9 380.68,-807.9 386.68,-807.9 392.68,-813.9 392.68,-819.9 392.68,-819.9 392.68,-840.54 392.68,-840.54 392.68,-846.54 386.68,-852.54 380.68,-852.54"/>
<text xml:space="preserve" text-anchor="middle" x="307.02" y="-839.22" font-family="Helvetica,sans-Serif" font-size="10.00">Equipment forms</text>
<text xml:space="preserve" text-anchor="middle" x="307.02" y="-827.22" font-family="Helvetica,sans-Serif" font-size="10.00">(VLPH / HLPH / Tundish / Recup /</text>
<text xml:space="preserve" text-anchor="middle" x="307.02" y="-815.22" font-family="Helvetica,sans-Serif" font-size="10.00">Blower / Burner / HPU / PU)</text>
</g>
<!-- dash&#45;&gt;forms -->
<g id="edge6" class="edge">
<title>dash&#45;&gt;forms</title>
<path fill="none" stroke="#64748b" d="M386.93,-971.2C401.17,-962.3 416.12,-949.93 424.02,-934.14 431.17,-919.83 434.29,-910.41 424.02,-898.14 394.74,-863.18 357.43,-910.05 323.02,-880.14 317.52,-875.36 313.9,-868.66 311.52,-861.75"/>
<polygon fill="#64748b" stroke="#64748b" points="314.34,-861.44 309.52,-854.47 308.94,-862.92 314.34,-861.44"/>
</g>
<!-- cbld -->
<g id="node3" class="node">
<title>cbld</title>
<path fill="#fef3c7" stroke="#b45309" d="M401.79,-934.14C401.79,-934.14 302.25,-934.14 302.25,-934.14 296.25,-934.14 290.25,-928.14 290.25,-922.14 290.25,-922.14 290.25,-910.14 290.25,-910.14 290.25,-904.14 296.25,-898.14 302.25,-898.14 302.25,-898.14 401.79,-898.14 401.79,-898.14 407.79,-898.14 413.79,-904.14 413.79,-910.14 413.79,-910.14 413.79,-922.14 413.79,-922.14 413.79,-928.14 407.79,-934.14 401.79,-934.14"/>
<text xml:space="preserve" text-anchor="middle" x="352.02" y="-913.14" font-family="Helvetica,sans-Serif" font-size="10.00">Combined Offer builder</text>
</g>
<!-- dash&#45;&gt;cbld -->
<g id="edge15" class="edge">
<title>dash&#45;&gt;cbld</title>
<path fill="none" stroke="#64748b" d="M352.02,-970.95C352.02,-962.76 352.02,-952.76 352.02,-943.62"/>
<polygon fill="#64748b" stroke="#64748b" points="354.82,-943.68 352.02,-935.68 349.22,-943.68 354.82,-943.68"/>
</g>
<!-- padm -->
<g id="node4" class="node">
<title>padm</title>
<path fill="#eff6ff" stroke="#1d4ed8" d="M258.11,-934.14C258.11,-934.14 131.92,-934.14 131.92,-934.14 125.92,-934.14 119.92,-928.14 119.92,-922.14 119.92,-922.14 119.92,-910.14 119.92,-910.14 119.92,-904.14 125.92,-898.14 131.92,-898.14 131.92,-898.14 258.11,-898.14 258.11,-898.14 264.11,-898.14 270.11,-904.14 270.11,-910.14 270.11,-910.14 270.11,-922.14 270.11,-922.14 270.11,-928.14 264.11,-934.14 258.11,-934.14"/>
<text xml:space="preserve" text-anchor="middle" x="195.02" y="-913.14" font-family="Helvetica,sans-Serif" font-size="10.00">Pricelist / Price&#45;master admin</text>
</g>
<!-- dash&#45;&gt;padm -->
<g id="edge20" class="edge">
<title>dash&#45;&gt;padm</title>
<path fill="none" stroke="#64748b" d="M317.17,-972.38C295.13,-962.41 266.35,-949.4 242.26,-938.5"/>
<polygon fill="#64748b" stroke="#64748b" points="243.44,-935.97 235,-935.22 241.13,-941.07 243.44,-935.97"/>
</g>
<!-- forms&#45;&gt;cbld -->
<g id="edge17" class="edge">
<title>forms&#45;&gt;cbld</title>
<path fill="none" stroke="#64748b" stroke-dasharray="1,5" d="M318.57,-852.76C324.6,-864 332.01,-877.83 338.33,-889.61"/>
<polygon fill="#64748b" stroke="#64748b" points="335.73,-890.69 341.98,-896.42 340.67,-888.04 335.73,-890.69"/>
<text xml:space="preserve" text-anchor="middle" x="383.9" y="-872.94" font-family="Helvetica,sans-Serif" font-size="8.00" fill="#64748b">BOM + specs (postMessage)</text>
</g>
<!-- api -->
<g id="node5" class="node">
<title>api</title>
<path fill="#eff6ff" stroke="#1d4ed8" d="M537.89,-743.1C537.89,-743.1 476.14,-743.1 476.14,-743.1 470.14,-743.1 464.14,-737.1 464.14,-731.1 464.14,-731.1 464.14,-719.1 464.14,-719.1 464.14,-713.1 470.14,-707.1 476.14,-707.1 476.14,-707.1 537.89,-707.1 537.89,-707.1 543.89,-707.1 549.89,-713.1 549.89,-719.1 549.89,-719.1 549.89,-731.1 549.89,-731.1 549.89,-737.1 543.89,-743.1 537.89,-743.1"/>
<text xml:space="preserve" text-anchor="middle" x="507.02" y="-722.1" font-family="Helvetica,sans-Serif" font-size="10.00">/api/*&#45;calculate</text>
</g>
<!-- forms&#45;&gt;api -->
<g id="edge7" class="edge">
<title>forms&#45;&gt;api</title>
<path fill="none" stroke="#64748b" d="M348.94,-807.6C382.95,-790.07 430.66,-765.47 464.75,-747.89"/>
<polygon fill="#64748b" stroke="#64748b" points="465.93,-750.43 471.76,-744.28 463.37,-745.46 465.93,-750.43"/>
<text xml:space="preserve" text-anchor="middle" x="421.25" y="-782.7" font-family="Helvetica,sans-Serif" font-size="8.00" fill="#64748b">parameters</text>
</g>
<!-- cbld&#45;&gt;forms -->
<g id="edge16" class="edge">
<title>cbld&#45;&gt;forms</title>
<path fill="none" stroke="#64748b" stroke-dasharray="5,2" d="M290.02,-898.56C267.2,-891.84 246.05,-884.62 242.78,-880.14 237.08,-872.33 239.12,-865.17 245.14,-858.89"/>
<polygon fill="#64748b" stroke="#64748b" points="246.82,-861.13 251.18,-853.87 243.24,-856.82 246.82,-861.13"/>
<text xml:space="preserve" text-anchor="middle" x="271.9" y="-872.94" font-family="Helvetica,sans-Serif" font-size="8.00" fill="#64748b">embeds (iframe)</text>
</g>
<!-- tpl -->
<g id="node13" class="node">
<title>tpl</title>
<path fill="#eff6ff" stroke="#1d4ed8" d="M526.11,-206.88C526.11,-206.88 429.92,-206.88 429.92,-206.88 423.92,-206.88 417.92,-200.88 417.92,-194.88 417.92,-194.88 417.92,-182.88 417.92,-182.88 417.92,-176.88 423.92,-170.88 429.92,-170.88 429.92,-170.88 526.11,-170.88 526.11,-170.88 532.11,-170.88 538.11,-176.88 538.11,-182.88 538.11,-182.88 538.11,-194.88 538.11,-194.88 538.11,-200.88 532.11,-206.88 526.11,-206.88"/>
<text xml:space="preserve" text-anchor="middle" x="478.02" y="-191.88" font-family="Helvetica,sans-Serif" font-size="10.00">docxtpl render</text>
<text xml:space="preserve" text-anchor="middle" x="478.02" y="-179.88" font-family="Helvetica,sans-Serif" font-size="10.00">(Offer_Template.docx)</text>
</g>
<!-- cbld&#45;&gt;tpl -->
<g id="edge18" class="edge">
<title>cbld&#45;&gt;tpl</title>
<path fill="none" stroke="#b45309" d="M289.93,-898.39C212.45,-877.05 90.02,-841.67 90.02,-831.22 90.02,-831.22 90.02,-831.22 90.02,-288.68 90.02,-223.69 297.03,-200.93 408.64,-193.38"/>
<polygon fill="#b45309" stroke="#b45309" points="408.51,-196.19 416.31,-192.88 408.14,-190.61 408.51,-196.19"/>
<text xml:space="preserve" text-anchor="middle" x="133.82" y="-519.2" font-family="Helvetica,sans-Serif" font-size="8.00" fill="#b45309">generate&#45;combined&#45;offer</text>
</g>
<!-- xls -->
<g id="node15" class="node">
<title>xls</title>
<polygon fill="#fff7ed" stroke="#d97706" points="664.67,-133.88 549.36,-133.88 549.36,-97.88 670.67,-97.88 670.67,-127.88 664.67,-133.88"/>
<polyline fill="none" stroke="#d97706" points="664.67,-133.88 664.67,-127.88"/>
<polyline fill="none" stroke="#d97706" points="670.67,-127.88 664.67,-127.88"/>
<text xml:space="preserve" text-anchor="middle" x="610.02" y="-118.88" font-family="Helvetica,sans-Serif" font-size="10.00">Costing Excel .xlsx</text>
<text xml:space="preserve" text-anchor="middle" x="610.02" y="-106.88" font-family="Helvetica,sans-Serif" font-size="10.00">(openpyxl, multi&#45;sheet)</text>
</g>
<!-- cbld&#45;&gt;xls -->
<g id="edge19" class="edge">
<title>cbld&#45;&gt;xls</title>
<path fill="none" stroke="#b45309" d="M414.26,-913.1C516.07,-908.06 707.02,-890.67 707.02,-831.22 707.02,-831.22 707.02,-831.22 707.02,-187.88 707.02,-165.78 690.42,-149.81 670.95,-138.69"/>
<polygon fill="#b45309" stroke="#b45309" points="672.49,-136.34 664.11,-135.07 669.87,-141.29 672.49,-136.34"/>
<text xml:space="preserve" text-anchor="middle" x="749.04" y="-474.08" font-family="Helvetica,sans-Serif" font-size="8.00" fill="#b45309">combined&#45;costing&#45;excel</text>
</g>
<!-- pm -->
<g id="node11" class="node">
<title>pm</title>
<path fill="#dcfce7" stroke="#16a34a" d="M253.52,-634.94C253.52,-636.74 223.71,-638.21 187.02,-638.21 150.33,-638.21 120.52,-636.74 120.52,-634.94 120.52,-634.94 120.52,-605.48 120.52,-605.48 120.52,-603.68 150.33,-602.21 187.02,-602.21 223.71,-602.21 253.52,-603.68 253.52,-605.48 253.52,-605.48 253.52,-634.94 253.52,-634.94"/>
<path fill="none" stroke="#16a34a" d="M253.52,-634.94C253.52,-633.13 223.71,-631.66 187.02,-631.66 150.33,-631.66 120.52,-633.13 120.52,-634.94"/>
<text xml:space="preserve" text-anchor="middle" x="187.02" y="-617.21" font-family="Helvetica,sans-Serif" font-size="10.00">component_price_master</text>
</g>
<!-- padm&#45;&gt;pm -->
<g id="edge21" class="edge">
<title>padm&#45;&gt;pm</title>
<path fill="none" stroke="#16a34a" stroke-dasharray="5,2" d="M119.43,-901.22C103.59,-896.18 87.58,-889.36 74.02,-880.14 32.08,-851.64 20.59,-837.89 4.19,-789.9 -19.62,-720.23 69.36,-668.54 131.47,-641.78"/>
<polygon fill="#16a34a" stroke="#16a34a" points="132.36,-644.45 138.65,-638.76 130.19,-639.29 132.36,-644.45"/>
<text xml:space="preserve" text-anchor="middle" x="39.1" y="-782.7" font-family="Helvetica,sans-Serif" font-size="8.00" fill="#16a34a">upload / delta&#45;apply</text>
</g>
<!-- cl -->
<g id="node6" class="node">
<title>cl</title>
<path fill="#eff6ff" stroke="#1d4ed8" d="M589.74,-638.21C589.74,-638.21 466.3,-638.21 466.3,-638.21 460.3,-638.21 454.3,-632.21 454.3,-626.21 454.3,-626.21 454.3,-614.21 454.3,-614.21 454.3,-608.21 460.3,-602.21 466.3,-602.21 466.3,-602.21 589.74,-602.21 589.74,-602.21 595.74,-602.21 601.74,-608.21 601.74,-614.21 601.74,-614.21 601.74,-626.21 601.74,-626.21 601.74,-632.21 595.74,-638.21 589.74,-638.21"/>
<text xml:space="preserve" text-anchor="middle" x="528.02" y="-623.21" font-family="Helvetica,sans-Serif" font-size="10.00">Calculation layer</text>
<text xml:space="preserve" text-anchor="middle" x="528.02" y="-611.21" font-family="Helvetica,sans-Serif" font-size="10.00">(pipes / burner / recuperator)</text>
</g>
<!-- api&#45;&gt;cl -->
<g id="edge1" class="edge">
<title>api&#45;&gt;cl</title>
<path fill="none" stroke="#64748b" d="M510.58,-706.65C513.89,-690.44 518.86,-666.08 522.65,-647.51"/>
<polygon fill="#64748b" stroke="#64748b" points="525.35,-648.29 524.21,-639.89 519.86,-647.17 525.35,-648.29"/>
</g>
<!-- se -->
<g id="node7" class="node">
<title>se</title>
<path fill="#eff6ff" stroke="#1d4ed8" d="M606.57,-543.92C606.57,-543.92 461.47,-543.92 461.47,-543.92 455.47,-543.92 449.47,-537.92 449.47,-531.92 449.47,-531.92 449.47,-511.28 449.47,-511.28 449.47,-505.28 455.47,-499.28 461.47,-499.28 461.47,-499.28 606.57,-499.28 606.57,-499.28 612.57,-499.28 618.57,-505.28 618.57,-511.28 618.57,-511.28 618.57,-531.92 618.57,-531.92 618.57,-537.92 612.57,-543.92 606.57,-543.92"/>
<text xml:space="preserve" text-anchor="middle" x="534.02" y="-530.6" font-family="Helvetica,sans-Serif" font-size="10.00">Selection engine</text>
<text xml:space="preserve" text-anchor="middle" x="534.02" y="-518.6" font-family="Helvetica,sans-Serif" font-size="10.00">(burner, gas train, AGR, blower,</text>
<text xml:space="preserve" text-anchor="middle" x="534.02" y="-506.6" font-family="Helvetica,sans-Serif" font-size="10.00">air duct, valves, rotary joint, HPU)</text>
</g>
<!-- cl&#45;&gt;se -->
<g id="edge2" class="edge">
<title>cl&#45;&gt;se</title>
<path fill="none" stroke="#64748b" d="M529.09,-601.94C529.93,-588.42 531.12,-569.27 532.12,-553.18"/>
<polygon fill="#64748b" stroke="#64748b" points="534.89,-553.79 532.59,-545.63 529.3,-553.44 534.89,-553.79"/>
</g>
<!-- bb -->
<g id="node8" class="node">
<title>bb</title>
<path fill="#eff6ff" stroke="#1d4ed8" d="M592.67,-453.68C592.67,-453.68 465.36,-453.68 465.36,-453.68 459.36,-453.68 453.36,-447.68 453.36,-441.68 453.36,-441.68 453.36,-429.68 453.36,-429.68 453.36,-423.68 459.36,-417.68 465.36,-417.68 465.36,-417.68 592.67,-417.68 592.67,-417.68 598.67,-417.68 604.67,-423.68 604.67,-429.68 604.67,-429.68 604.67,-441.68 604.67,-441.68 604.67,-447.68 598.67,-453.68 592.67,-453.68"/>
<text xml:space="preserve" text-anchor="middle" x="529.02" y="-438.68" font-family="Helvetica,sans-Serif" font-size="10.00">BOM builder</text>
<text xml:space="preserve" text-anchor="middle" x="529.02" y="-426.68" font-family="Helvetica,sans-Serif" font-size="10.00">(grouped by system / MEDIA)</text>
</g>
<!-- se&#45;&gt;bb -->
<g id="edge3" class="edge">
<title>se&#45;&gt;bb</title>
<path fill="none" stroke="#64748b" d="M532.73,-498.99C532.08,-488.06 531.28,-474.71 530.6,-463.17"/>
<polygon fill="#64748b" stroke="#64748b" points="533.41,-463.32 530.14,-455.5 527.82,-463.66 533.41,-463.32"/>
</g>
<!-- pr -->
<g id="node9" class="node">
<title>pr</title>
<path fill="#eff6ff" stroke="#1d4ed8" d="M583.38,-380.68C583.38,-380.68 464.66,-380.68 464.66,-380.68 458.66,-380.68 452.66,-374.68 452.66,-368.68 452.66,-368.68 452.66,-356.68 452.66,-356.68 452.66,-350.68 458.66,-344.68 464.66,-344.68 464.66,-344.68 583.38,-344.68 583.38,-344.68 589.38,-344.68 595.38,-350.68 595.38,-356.68 595.38,-356.68 595.38,-368.68 595.38,-368.68 595.38,-374.68 589.38,-380.68 583.38,-380.68"/>
<text xml:space="preserve" text-anchor="middle" x="524.02" y="-365.68" font-family="Helvetica,sans-Serif" font-size="10.00">Pricing</text>
<text xml:space="preserve" text-anchor="middle" x="524.02" y="-353.68" font-family="Helvetica,sans-Serif" font-size="10.00">(rate lookup + 1.8x markup)</text>
</g>
<!-- bb&#45;&gt;pr -->
<g id="edge4" class="edge">
<title>bb&#45;&gt;pr</title>
<path fill="none" stroke="#64748b" d="M527.81,-417.49C527.23,-409.3 526.53,-399.3 525.88,-390.16"/>
<polygon fill="#64748b" stroke="#64748b" points="528.68,-390 525.32,-382.22 523.09,-390.4 528.68,-390"/>
</g>
<!-- cs -->
<g id="node10" class="node">
<title>cs</title>
<path fill="#eff6ff" stroke="#1d4ed8" d="M554.32,-307.68C554.32,-307.68 493.71,-307.68 493.71,-307.68 487.71,-307.68 481.71,-301.68 481.71,-295.68 481.71,-295.68 481.71,-283.68 481.71,-283.68 481.71,-277.68 487.71,-271.68 493.71,-271.68 493.71,-271.68 554.32,-271.68 554.32,-271.68 560.32,-271.68 566.32,-277.68 566.32,-283.68 566.32,-283.68 566.32,-295.68 566.32,-295.68 566.32,-301.68 560.32,-307.68 554.32,-307.68"/>
<text xml:space="preserve" text-anchor="middle" x="524.02" y="-286.68" font-family="Helvetica,sans-Serif" font-size="10.00">Cost summary</text>
</g>
<!-- pr&#45;&gt;cs -->
<g id="edge5" class="edge">
<title>pr&#45;&gt;cs</title>
<path fill="none" stroke="#64748b" d="M524.02,-344.49C524.02,-336.3 524.02,-326.3 524.02,-317.16"/>
<polygon fill="#64748b" stroke="#64748b" points="526.82,-317.22 524.02,-309.22 521.22,-317.22 526.82,-317.22"/>
</g>
<!-- cs&#45;&gt;tpl -->
<g id="edge8" class="edge">
<title>cs&#45;&gt;tpl</title>
<path fill="none" stroke="#64748b" d="M516.01,-271.47C508.79,-255.98 498.1,-233.01 489.9,-215.39"/>
<polygon fill="#64748b" stroke="#64748b" points="492.65,-214.67 486.73,-208.6 487.57,-217.03 492.65,-214.67"/>
<text xml:space="preserve" text-anchor="middle" x="536.61" y="-246.48" font-family="Helvetica,sans-Serif" font-size="8.00" fill="#64748b">BOM + customer</text>
</g>
<!-- cs&#45;&gt;xls -->
<g id="edge11" class="edge">
<title>cs&#45;&gt;xls</title>
<path fill="none" stroke="#64748b" d="M554.22,-271.41C560.87,-266.42 567.32,-260.46 572.02,-253.68 595.35,-220 604.4,-172.39 607.88,-143.13"/>
<polygon fill="#64748b" stroke="#64748b" points="610.64,-143.72 608.7,-135.47 605.07,-143.12 610.64,-143.72"/>
</g>
<!-- pm&#45;&gt;pr -->
<g id="edge14" class="edge">
<title>pm&#45;&gt;pr</title>
<path fill="none" stroke="#64748b" stroke-dasharray="5,2" d="M207.82,-601.91C250.89,-566.32 353.27,-482.77 443.02,-417.68 457.79,-406.96 474.52,-395.68 488.92,-386.21"/>
<polygon fill="#64748b" stroke="#64748b" points="490.22,-388.7 495.39,-381.98 487.16,-384.02 490.22,-388.7"/>
<text xml:space="preserve" text-anchor="middle" x="377.52" y="-474.08" font-family="Helvetica,sans-Serif" font-size="8.00" fill="#64748b">rates</text>
</g>
<!-- cat -->
<g id="node12" class="node">
<title>cat</title>
<path fill="#dcfce7" stroke="#16a34a" d="M424.95,-645.32C424.95,-648.4 390.92,-650.9 349.02,-650.9 307.12,-650.9 273.08,-648.4 273.08,-645.32 273.08,-645.32 273.08,-595.1 273.08,-595.1 273.08,-592.02 307.12,-589.52 349.02,-589.52 390.92,-589.52 424.95,-592.02 424.95,-595.1 424.95,-595.1 424.95,-645.32 424.95,-645.32"/>
<path fill="none" stroke="#16a34a" d="M424.95,-645.32C424.95,-642.24 390.92,-639.74 349.02,-639.74 307.12,-639.74 273.08,-642.24 273.08,-645.32"/>
<text xml:space="preserve" text-anchor="middle" x="349.02" y="-629.21" font-family="Helvetica,sans-Serif" font-size="10.00">Catalogue masters</text>
<text xml:space="preserve" text-anchor="middle" x="349.02" y="-617.21" font-family="Helvetica,sans-Serif" font-size="10.00">(blower / burner / gas train /</text>
<text xml:space="preserve" text-anchor="middle" x="349.02" y="-605.21" font-family="Helvetica,sans-Serif" font-size="10.00">valves / HPU / recuperator ...)</text>
</g>
<!-- cat&#45;&gt;se -->
<g id="edge13" class="edge">
<title>cat&#45;&gt;se</title>
<path fill="none" stroke="#64748b" stroke-dasharray="5,2" d="M404.77,-590.09C430.1,-576.87 459.82,-561.35 484.37,-548.52"/>
<polygon fill="#64748b" stroke="#64748b" points="485.35,-551.17 491.15,-544.99 482.76,-546.21 485.35,-551.17"/>
<text xml:space="preserve" text-anchor="middle" x="478.54" y="-564.32" font-family="Helvetica,sans-Serif" font-size="8.00" fill="#64748b">select parts</text>
</g>
<!-- pdf -->
<g id="node14" class="node">
<title>pdf</title>
<polygon fill="#fff7ed" stroke="#d97706" points="523.53,-133.88 418.51,-133.88 418.51,-97.88 529.53,-97.88 529.53,-127.88 523.53,-133.88"/>
<polyline fill="none" stroke="#d97706" points="523.53,-133.88 523.53,-127.88"/>
<polyline fill="none" stroke="#d97706" points="529.53,-127.88 523.53,-127.88"/>
<text xml:space="preserve" text-anchor="middle" x="474.02" y="-118.88" font-family="Helvetica,sans-Serif" font-size="10.00">Word .docx &#160;&#45;&gt; &#160;PDF</text>
<text xml:space="preserve" text-anchor="middle" x="474.02" y="-106.88" font-family="Helvetica,sans-Serif" font-size="10.00">(LibreOffice)</text>
</g>
<!-- tpl&#45;&gt;pdf -->
<g id="edge9" class="edge">
<title>tpl&#45;&gt;pdf</title>
<path fill="none" stroke="#64748b" d="M477.05,-170.69C476.59,-162.5 476.02,-152.5 475.51,-143.36"/>
<polygon fill="#64748b" stroke="#64748b" points="478.31,-143.25 475.06,-135.42 472.72,-143.56 478.31,-143.25"/>
</g>
<!-- drv -->
<g id="node16" class="node">
<title>drv</title>
<path fill="#dcfce7" stroke="#16a34a" d="M586.01,-56.8C586.01,-59.05 566.29,-60.88 542.02,-60.88 517.75,-60.88 498.03,-59.05 498.03,-56.8 498.03,-56.8 498.03,-20.08 498.03,-20.08 498.03,-17.83 517.75,-16 542.02,-16 566.29,-16 586.01,-17.83 586.01,-20.08 586.01,-20.08 586.01,-56.8 586.01,-56.8"/>
<path fill="none" stroke="#16a34a" d="M586.01,-56.8C586.01,-54.55 566.29,-52.72 542.02,-52.72 517.75,-52.72 498.03,-54.55 498.03,-56.8"/>
<text xml:space="preserve" text-anchor="middle" x="542.02" y="-41.44" font-family="Helvetica,sans-Serif" font-size="10.00">Google Drive</text>
<text xml:space="preserve" text-anchor="middle" x="542.02" y="-29.44" font-family="Helvetica,sans-Serif" font-size="10.00">(OAuth upload)</text>
</g>
<!-- pdf&#45;&gt;drv -->
<g id="edge10" class="edge">
<title>pdf&#45;&gt;drv</title>
<path fill="none" stroke="#64748b" d="M489.79,-97.38C497.62,-88.7 507.28,-77.98 516.15,-68.13"/>
<polygon fill="#64748b" stroke="#64748b" points="518.15,-70.1 521.43,-62.28 513.99,-66.35 518.15,-70.1"/>
</g>
<!-- xls&#45;&gt;drv -->
<g id="edge12" class="edge">
<title>xls&#45;&gt;drv</title>
<path fill="none" stroke="#64748b" d="M594.25,-97.38C586.42,-88.7 576.76,-77.98 567.88,-68.13"/>
<polygon fill="#64748b" stroke="#64748b" points="570.04,-66.35 562.61,-62.28 565.88,-70.1 570.04,-66.35"/>
</g>
</g>
</svg>
